%TF.GenerationSoftware,KiCad,Pcbnew,9.0.7*%
%TF.CreationDate,2026-03-25T16:30:23-04:00*%
%TF.ProjectId,splitkbd,73706c69-746b-4626-942e-6b696361645f,rev?*%
%TF.SameCoordinates,Original*%
%TF.FileFunction,Profile,NP*%
%FSLAX46Y46*%
G04 Gerber Fmt 4.6, Leading zero omitted, Abs format (unit mm)*
G04 Created by KiCad (PCBNEW 9.0.7) date 2026-03-25 16:30:23*
%MOMM*%
%LPD*%
G01*
G04 APERTURE LIST*
%TA.AperFunction,Profile*%
%ADD10C,0.050000*%
%TD*%
G04 APERTURE END LIST*
D10*
X356060000Y-51250000D02*
X327960000Y-51250000D01*
X48950000Y-61390000D02*
X48950000Y-169540000D01*
X387260000Y-61370000D02*
X356060000Y-61370000D01*
X349680000Y-169520000D02*
X380720000Y-169520000D01*
X183560000Y-162840000D02*
X86530000Y-163010000D01*
X249625000Y-58270000D02*
X273560000Y-58270000D01*
X327960000Y-51250000D02*
X327960000Y-42260000D01*
X356060000Y-61370000D02*
X356060000Y-51250000D01*
X136840000Y-50780000D02*
X162650000Y-50780000D01*
X210520000Y-65080000D02*
X215519951Y-65080105D01*
X136840000Y-42280000D02*
X136840000Y-50780000D01*
X220820000Y-171970141D02*
X252650000Y-171970000D01*
X86530000Y-163010000D02*
X86530000Y-169540000D01*
X108250000Y-51270000D02*
X108250000Y-42280000D01*
X162650000Y-50780000D02*
X162650000Y-58290000D01*
X86530000Y-169540000D02*
X55490000Y-169540000D01*
X220770000Y-162010000D02*
X220630000Y-121400011D01*
X215420000Y-171990000D02*
X183560000Y-171990000D01*
X55490000Y-169540000D02*
X48950000Y-169540000D01*
X220770000Y-162010000D02*
G75*
G02*
X215469877Y-161964178I-2650000J30000D01*
G01*
X162650000Y-58290000D02*
X186585000Y-58290000D01*
X215619980Y-75130000D02*
X215557509Y-111380000D01*
X215420000Y-171990000D02*
G75*
G02*
X220820000Y-171969888I2700000J10000D01*
G01*
X299370000Y-42260000D02*
X299370000Y-50760000D01*
X220640110Y-111270000D02*
G75*
G02*
X215557509Y-111380000I-2540110J-110000D01*
G01*
X215619980Y-75130000D02*
G75*
G02*
X220680000Y-75140000I2530020J0D01*
G01*
X273560000Y-58270000D02*
X273560000Y-50760000D01*
X215569822Y-121370000D02*
X215469879Y-161964178D01*
X186585000Y-58290000D02*
X191000000Y-65080000D01*
X249625000Y-58270000D02*
X245131973Y-65180000D01*
X252650000Y-162820000D02*
X349680000Y-162990000D01*
X220640110Y-111270000D02*
X220679972Y-75145584D01*
X273560000Y-50760000D02*
X299370000Y-50760000D01*
X80150000Y-61390000D02*
X80150000Y-51270000D01*
X220789877Y-65169980D02*
X245131973Y-65180000D01*
X220789877Y-65170000D02*
G75*
G02*
X215519952Y-65080039I-2634877J50000D01*
G01*
X349680000Y-162990000D02*
X349680000Y-169520000D01*
X380720000Y-169520000D02*
X387260000Y-169520000D01*
X48950000Y-61390000D02*
X80150000Y-61390000D01*
X108250000Y-42280000D02*
X136840000Y-42280000D01*
X327960000Y-42260000D02*
X299370000Y-42260000D01*
X387260000Y-61370000D02*
X387260000Y-169520000D01*
X191000000Y-65080000D02*
X210520000Y-65080000D01*
X80150000Y-51270000D02*
X108250000Y-51270000D01*
X215569822Y-121370000D02*
G75*
G02*
X220630000Y-121400000I2530178J0D01*
G01*
X252650000Y-171970000D02*
X252650000Y-162820000D01*
X183560000Y-171990000D02*
X183560000Y-162840000D01*
M02*
