M48
; DRILL file {KiCad 9.0.7} date 2026-03-31T17:35:57-0400
; FORMAT={-:-/ absolute / metric / decimal}
; #@! TF.CreationDate,2026-03-31T17:35:57-04:00
; #@! TF.GenerationSoftware,Kicad,Pcbnew,9.0.7
; #@! TF.FileFunction,Plated,1,2,PTH
FMAT,2
METRIC
; #@! TA.AperFunction,Plated,PTH,ViaDrill
T1C0.300
; #@! TA.AperFunction,Plated,PTH,ComponentDrill
T2C2.500
; #@! TA.AperFunction,Plated,PTH,ComponentDrill
T3C3.000
%
G90
G05
T1
X67.64Y-132.93
X92.91Y-126.46
X118.27Y-122.08
X143.675Y-126.93
X168.99Y-132.22
X185.21Y-79.43
X185.46Y-82.14
X187.36Y-75.61
X191.451Y-92.46
X193.05Y-93.25
X193.069Y-94.071
X193.1Y-94.87
X193.93Y-92.54
X206.81Y-87.09
X207.56Y-90.26
X207.89Y-88.89
X208.68Y-91.15
X209.33Y-88.21
X211.88Y-87.55
X232.07Y-77.67
X234.44Y-77.03
X241.55Y-94.66
X245.79Y-92.8
X247.46Y-85.38
X247.55Y-79.78
X247.729Y-91.709
X248.78Y-94.1
X249.14Y-80.66
X249.26Y-99.87
X258.77Y-136.08
X284.1Y-129.1
X309.51Y-121.38
X334.81Y-128.7
X360.32Y-141.38
T2
X202.32Y-72.59
X202.32Y-75.99
X241.655Y-72.773
X241.655Y-76.173
T3
X67.59Y-149.63
X67.595Y-99.23
X67.61Y-74.09
X67.64Y-124.6
X73.94Y-147.09
X73.945Y-96.69
X73.96Y-71.55
X73.99Y-122.06
X92.84Y-61.91
X92.85Y-112.88
X92.89Y-87.5
X92.91Y-138.06
X99.19Y-59.37
X99.2Y-110.34
X99.24Y-84.96
X99.26Y-135.52
X118.23Y-80.65
X118.27Y-131.98
X118.29Y-106.02
X118.315Y-55.46
X124.58Y-78.11
X124.62Y-129.44
X124.64Y-103.48
X124.665Y-52.92
X143.65Y-62.22
X143.675Y-138.24
X143.68Y-112.41
X143.71Y-87.49
X150.0Y-59.68
X150.025Y-135.7
X150.03Y-109.87
X150.06Y-84.95
X168.99Y-146.59
X169.0Y-95.61
X169.005Y-121.0
X169.03Y-70.18
X175.34Y-144.05
X175.35Y-93.07
X175.355Y-118.46
X175.38Y-67.64
X194.62Y-155.82
X200.97Y-153.28
X233.33Y-155.3
X239.68Y-152.76
X258.59Y-145.65
X258.675Y-95.12
X258.73Y-69.86
X258.77Y-120.69
X264.94Y-143.11
X265.025Y-92.58
X265.08Y-67.32
X265.12Y-118.15
X284.055Y-61.39
X284.1Y-112.63
X284.14Y-87.08
X284.14Y-137.95
X290.405Y-58.85
X290.45Y-110.09
X290.49Y-84.54
X290.49Y-135.41
X309.32Y-105.63
X309.355Y-55.3
X309.51Y-131.02
X309.56Y-80.33
X315.67Y-103.09
X315.705Y-52.76
X315.86Y-128.48
X315.91Y-77.79
X334.74Y-87.04
X334.8Y-112.62
X334.81Y-137.51
X334.89Y-61.58
X341.09Y-84.5
X341.15Y-110.08
X341.16Y-134.97
X341.24Y-59.04
X360.25Y-99.53
X360.25Y-150.14
X360.26Y-74.37
X360.32Y-124.57
X366.6Y-96.99
X366.6Y-147.6
X366.61Y-71.83
X366.67Y-122.03
M30
