%TF.GenerationSoftware,KiCad,Pcbnew,9.0.7*%
%TF.CreationDate,2026-03-31T17:35:52-04:00*%
%TF.ProjectId,splitkbd,73706c69-746b-4626-942e-6b696361645f,rev?*%
%TF.SameCoordinates,Original*%
%TF.FileFunction,Soldermask,Top*%
%TF.FilePolarity,Negative*%
%FSLAX46Y46*%
G04 Gerber Fmt 4.6, Leading zero omitted, Abs format (unit mm)*
G04 Created by KiCad (PCBNEW 9.0.7) date 2026-03-31 17:35:52*
%MOMM*%
%LPD*%
G01*
G04 APERTURE LIST*
G04 Aperture macros list*
%AMRoundRect*
0 Rectangle with rounded corners*
0 $1 Rounding radius*
0 $2 $3 $4 $5 $6 $7 $8 $9 X,Y pos of 4 corners*
0 Add a 4 corners polygon primitive as box body*
4,1,4,$2,$3,$4,$5,$6,$7,$8,$9,$2,$3,0*
0 Add four circle primitives for the rounded corners*
1,1,$1+$1,$2,$3*
1,1,$1+$1,$4,$5*
1,1,$1+$1,$6,$7*
1,1,$1+$1,$8,$9*
0 Add four rect primitives between the rounded corners*
20,1,$1+$1,$2,$3,$4,$5,0*
20,1,$1+$1,$4,$5,$6,$7,0*
20,1,$1+$1,$6,$7,$8,$9,0*
20,1,$1+$1,$8,$9,$2,$3,0*%
G04 Aperture macros list end*
%ADD10C,1.750000*%
%ADD11C,3.987800*%
%ADD12C,3.300000*%
%ADD13C,0.500000*%
%ADD14C,3.200000*%
%ADD15RoundRect,0.775400X-0.775400X-0.775400X0.775400X-0.775400X0.775400X0.775400X-0.775400X0.775400X0*%
G04 APERTURE END LIST*
D10*
%TO.C,SW10*%
X343700000Y-140050000D03*
D11*
X338620000Y-140050000D03*
D10*
X333540000Y-140050000D03*
D12*
X334810000Y-137510000D03*
X341160000Y-134970000D03*
%TD*%
D10*
%TO.C,SW34*%
X152540000Y-64760000D03*
D11*
X147460000Y-64760000D03*
D10*
X142380000Y-64760000D03*
D12*
X143650000Y-62220000D03*
X150000000Y-59680000D03*
%TD*%
D10*
%TO.C,SW19*%
X343690000Y-115160000D03*
D11*
X338610000Y-115160000D03*
D10*
X333530000Y-115160000D03*
D12*
X334800000Y-112620000D03*
X341150000Y-110080000D03*
%TD*%
D10*
%TO.C,SW33*%
X127205000Y-58000000D03*
D11*
X122125000Y-58000000D03*
D10*
X117045000Y-58000000D03*
D12*
X118315000Y-55460000D03*
X124665000Y-52920000D03*
%TD*%
D10*
%TO.C,SW38*%
X318245176Y-57840000D03*
D11*
X313165176Y-57840000D03*
D10*
X308085176Y-57840000D03*
D12*
X309355176Y-55300000D03*
X315705176Y-52760000D03*
%TD*%
D10*
%TO.C,SW27*%
X293030000Y-89620000D03*
D11*
X287950000Y-89620000D03*
D10*
X282870000Y-89620000D03*
D12*
X284140000Y-87080000D03*
X290490000Y-84540000D03*
%TD*%
D10*
%TO.C,SW17*%
X292990000Y-115170000D03*
D11*
X287910000Y-115170000D03*
D10*
X282830000Y-115170000D03*
D12*
X284100000Y-112630000D03*
X290450000Y-110090000D03*
%TD*%
D10*
%TO.C,SW2*%
X369140000Y-152680000D03*
D11*
X364060000Y-152680000D03*
D10*
X358980000Y-152680000D03*
D12*
X360250000Y-150140000D03*
X366600000Y-147600000D03*
%TD*%
D10*
%TO.C,SW36*%
X369150000Y-76910000D03*
D11*
X364070000Y-76910000D03*
D10*
X358990000Y-76910000D03*
D12*
X360260000Y-74370000D03*
X366610000Y-71830000D03*
%TD*%
D10*
%TO.C,SW30*%
X267564824Y-97660000D03*
D11*
X262484824Y-97660000D03*
D10*
X257404824Y-97660000D03*
D12*
X258674824Y-95120000D03*
X265024824Y-92580000D03*
%TD*%
D10*
%TO.C,SW35*%
X177920000Y-72720000D03*
D11*
X172840000Y-72720000D03*
D10*
X167760000Y-72720000D03*
D12*
X169030000Y-70180000D03*
X175380000Y-67640000D03*
%TD*%
D10*
%TO.C,SW29*%
X343630000Y-89580000D03*
D11*
X338550000Y-89580000D03*
D10*
X333470000Y-89580000D03*
D12*
X334740000Y-87040000D03*
X341090000Y-84500000D03*
%TD*%
D10*
%TO.C,SW28*%
X318450000Y-82870000D03*
D11*
X313370000Y-82870000D03*
D10*
X308290000Y-82870000D03*
D12*
X309560000Y-80330000D03*
X315910000Y-77790000D03*
%TD*%
D10*
%TO.C,SW40*%
X267620000Y-72400000D03*
D11*
X262540000Y-72400000D03*
D10*
X257460000Y-72400000D03*
D12*
X258730000Y-69860000D03*
X265080000Y-67320000D03*
%TD*%
D10*
%TO.C,SW12*%
X101740000Y-115420000D03*
D11*
X96660000Y-115420000D03*
D10*
X91580000Y-115420000D03*
D12*
X92850000Y-112880000D03*
X99200000Y-110340000D03*
%TD*%
D10*
%TO.C,SW13*%
X127180000Y-108560000D03*
D11*
X122100000Y-108560000D03*
D10*
X117020000Y-108560000D03*
D12*
X118290000Y-106020000D03*
X124640000Y-103480000D03*
%TD*%
D10*
%TO.C,SW41*%
X203510000Y-158360000D03*
D11*
X198430000Y-158360000D03*
D10*
X193350000Y-158360000D03*
D12*
X194620000Y-155820000D03*
X200970000Y-153280000D03*
%TD*%
D10*
%TO.C,SW4*%
X293030000Y-140490000D03*
D11*
X287950000Y-140490000D03*
D10*
X282870000Y-140490000D03*
D12*
X284140000Y-137950000D03*
X290490000Y-135410000D03*
%TD*%
D10*
%TO.C,SW22*%
X101780000Y-90040000D03*
D11*
X96700000Y-90040000D03*
D10*
X91620000Y-90040000D03*
D12*
X92890000Y-87500000D03*
X99240000Y-84960000D03*
%TD*%
D10*
%TO.C,SW11*%
X267480000Y-148190000D03*
D11*
X262400000Y-148190000D03*
D10*
X257320000Y-148190000D03*
D12*
X258590000Y-145650000D03*
X264940000Y-143110000D03*
%TD*%
D10*
%TO.C,SW3*%
X101800000Y-140600000D03*
D11*
X96720000Y-140600000D03*
D10*
X91640000Y-140600000D03*
D12*
X92910000Y-138060000D03*
X99260000Y-135520000D03*
%TD*%
D10*
%TO.C,SW16*%
X369210000Y-127110000D03*
D11*
X364130000Y-127110000D03*
D10*
X359050000Y-127110000D03*
D12*
X360320000Y-124570000D03*
X366670000Y-122030000D03*
%TD*%
D10*
%TO.C,SW39*%
X343780000Y-64120000D03*
D11*
X338700000Y-64120000D03*
D10*
X333620000Y-64120000D03*
D12*
X334890000Y-61580000D03*
X341240000Y-59040000D03*
%TD*%
D10*
%TO.C,SW24*%
X152600000Y-90030000D03*
D11*
X147520000Y-90030000D03*
D10*
X142440000Y-90030000D03*
D12*
X143710000Y-87490000D03*
X150060000Y-84950000D03*
%TD*%
D10*
%TO.C,SW31*%
X76500000Y-76630000D03*
D11*
X71420000Y-76630000D03*
D10*
X66340000Y-76630000D03*
D12*
X67610000Y-74090000D03*
X73960000Y-71550000D03*
%TD*%
D10*
%TO.C,SW25*%
X177890000Y-98150000D03*
D11*
X172810000Y-98150000D03*
D10*
X167730000Y-98150000D03*
D12*
X169000000Y-95610000D03*
X175350000Y-93070000D03*
%TD*%
D10*
%TO.C,SW20*%
X267660000Y-123230000D03*
D11*
X262580000Y-123230000D03*
D10*
X257500000Y-123230000D03*
D12*
X258770000Y-120690000D03*
X265120000Y-118150000D03*
%TD*%
D10*
%TO.C,SW8*%
X177880000Y-149130000D03*
D11*
X172800000Y-149130000D03*
D10*
X167720000Y-149130000D03*
D12*
X168990000Y-146590000D03*
X175340000Y-144050000D03*
%TD*%
D10*
%TO.C,SW14*%
X152570000Y-114950000D03*
D11*
X147490000Y-114950000D03*
D10*
X142410000Y-114950000D03*
D12*
X143680000Y-112410000D03*
X150030000Y-109870000D03*
%TD*%
D10*
%TO.C,SW5*%
X127160000Y-134520000D03*
D11*
X122080000Y-134520000D03*
D10*
X117000000Y-134520000D03*
D12*
X118270000Y-131980000D03*
X124620000Y-129440000D03*
%TD*%
D10*
%TO.C,SW21*%
X76485176Y-101770000D03*
D11*
X71405176Y-101770000D03*
D10*
X66325176Y-101770000D03*
D12*
X67595176Y-99230000D03*
X73945176Y-96690000D03*
%TD*%
D10*
%TO.C,SW23*%
X127120000Y-83190000D03*
D11*
X122040000Y-83190000D03*
D10*
X116960000Y-83190000D03*
D12*
X118230000Y-80650000D03*
X124580000Y-78110000D03*
%TD*%
D10*
%TO.C,SW6*%
X318400000Y-133560000D03*
D11*
X313320000Y-133560000D03*
D10*
X308240000Y-133560000D03*
D12*
X309510000Y-131020000D03*
X315860000Y-128480000D03*
%TD*%
D10*
%TO.C,SW37*%
X292945176Y-63930000D03*
D11*
X287865176Y-63930000D03*
D10*
X282785176Y-63930000D03*
D12*
X284055176Y-61390000D03*
X290405176Y-58850000D03*
%TD*%
D10*
%TO.C,SW9*%
X76530000Y-127140000D03*
D11*
X71450000Y-127140000D03*
D10*
X66370000Y-127140000D03*
D12*
X67640000Y-124600000D03*
X73990000Y-122060000D03*
%TD*%
D10*
%TO.C,SW42*%
X242220000Y-157840000D03*
D11*
X237140000Y-157840000D03*
D10*
X232060000Y-157840000D03*
D12*
X233330000Y-155300000D03*
X239680000Y-152760000D03*
%TD*%
D10*
%TO.C,SW7*%
X152564824Y-140780000D03*
D11*
X147484824Y-140780000D03*
D10*
X142404824Y-140780000D03*
D12*
X143674824Y-138240000D03*
X150024824Y-135700000D03*
%TD*%
D10*
%TO.C,SW32*%
X101730000Y-64450000D03*
D11*
X96650000Y-64450000D03*
D10*
X91570000Y-64450000D03*
D12*
X92840000Y-61910000D03*
X99190000Y-59370000D03*
%TD*%
D10*
%TO.C,SW18*%
X318210000Y-108170000D03*
D11*
X313130000Y-108170000D03*
D10*
X308050000Y-108170000D03*
D12*
X309320000Y-105630000D03*
X315670000Y-103090000D03*
%TD*%
D10*
%TO.C,SW15*%
X177894824Y-123540000D03*
D11*
X172814824Y-123540000D03*
D10*
X167734824Y-123540000D03*
D12*
X169004824Y-121000000D03*
X175354824Y-118460000D03*
%TD*%
D10*
%TO.C,SW1*%
X76480000Y-152170000D03*
D11*
X71400000Y-152170000D03*
D10*
X66320000Y-152170000D03*
D12*
X67590000Y-149630000D03*
X73940000Y-147090000D03*
%TD*%
D10*
%TO.C,SW26*%
X369140000Y-102070000D03*
D11*
X364060000Y-102070000D03*
D10*
X358980000Y-102070000D03*
D12*
X360250000Y-99530000D03*
X366600000Y-96990000D03*
%TD*%
D13*
%TO.C,B03*%
X215600000Y-120130000D03*
X220600000Y-120130000D03*
X215600000Y-119380000D03*
X215600000Y-119380000D03*
X220600000Y-119380000D03*
X220600000Y-119380000D03*
X215600000Y-118630000D03*
X220600000Y-118630000D03*
X215600000Y-117880000D03*
X220600000Y-117880000D03*
X215600000Y-117130000D03*
X220600000Y-117130000D03*
X215600000Y-116380000D03*
X220600000Y-116380000D03*
X215600000Y-115630000D03*
X220600000Y-115630000D03*
X215600000Y-114880000D03*
X220600000Y-114880000D03*
X215600000Y-114130000D03*
X220600000Y-114130000D03*
X215600000Y-113380000D03*
X220600000Y-113380000D03*
X215600000Y-112630000D03*
X220600000Y-112630000D03*
%TD*%
D14*
%TO.C,H4*%
X210903806Y-69696194D03*
%TD*%
%TO.C,H7*%
X53566193Y-66006193D03*
%TD*%
%TO.C,H1*%
X225406194Y-69786194D03*
%TD*%
%TO.C,H2*%
X210803806Y-167373806D03*
%TD*%
%TO.C,H5*%
X382643806Y-65986194D03*
%TD*%
%TO.C,H8*%
X53566194Y-164923806D03*
%TD*%
D13*
%TO.C,B02*%
X215650000Y-73880000D03*
X220650000Y-73880000D03*
X215650000Y-73130000D03*
X215650000Y-73130000D03*
X220650000Y-73130000D03*
X220650000Y-73130000D03*
X215650000Y-72380000D03*
X220650000Y-72380000D03*
X215650000Y-71630000D03*
X220650000Y-71630000D03*
X215650000Y-70880000D03*
X220650000Y-70880000D03*
X215650000Y-70130000D03*
X220650000Y-70130000D03*
X215650000Y-69380000D03*
X220650000Y-69380000D03*
X215650000Y-68630000D03*
X220650000Y-68630000D03*
X215650000Y-67880000D03*
X220650000Y-67880000D03*
X215650000Y-67130000D03*
X220650000Y-67130000D03*
X215650000Y-66380000D03*
X220650000Y-66380000D03*
%TD*%
%TO.C,B01*%
X220620000Y-163230000D03*
X215620000Y-163230000D03*
X220620000Y-163980000D03*
X220620000Y-163980000D03*
X215620000Y-163980000D03*
X215620000Y-163980000D03*
X220620000Y-164730000D03*
X215620000Y-164730000D03*
X220620000Y-165480000D03*
X215620000Y-165480000D03*
X220620000Y-166230000D03*
X215620000Y-166230000D03*
X220620000Y-166980000D03*
X215620000Y-166980000D03*
X220620000Y-167730000D03*
X215620000Y-167730000D03*
X220620000Y-168480000D03*
X215620000Y-168480000D03*
X220620000Y-169230000D03*
X215620000Y-169230000D03*
X220620000Y-169980000D03*
X215620000Y-169980000D03*
X220620000Y-170730000D03*
X215620000Y-170730000D03*
%TD*%
D14*
%TO.C,H3*%
X225436194Y-167353806D03*
%TD*%
%TO.C,H6*%
X382643806Y-164903806D03*
%TD*%
D15*
%TO.C,U2*%
X241655000Y-76173100D03*
X241655000Y-72773100D03*
%TD*%
%TO.C,U1*%
X202320000Y-75990000D03*
X202320000Y-72590000D03*
%TD*%
M02*
