%TF.GenerationSoftware,KiCad,Pcbnew,9.0.7*%
%TF.CreationDate,2026-03-31T17:35:52-04:00*%
%TF.ProjectId,splitkbd,73706c69-746b-4626-942e-6b696361645f,rev?*%
%TF.SameCoordinates,Original*%
%TF.FileFunction,Soldermask,Bot*%
%TF.FilePolarity,Negative*%
%FSLAX46Y46*%
G04 Gerber Fmt 4.6, Leading zero omitted, Abs format (unit mm)*
G04 Created by KiCad (PCBNEW 9.0.7) date 2026-03-31 17:35:52*
%MOMM*%
%LPD*%
G01*
G04 APERTURE LIST*
G04 Aperture macros list*
%AMRoundRect*
0 Rectangle with rounded corners*
0 $1 Rounding radius*
0 $2 $3 $4 $5 $6 $7 $8 $9 X,Y pos of 4 corners*
0 Add a 4 corners polygon primitive as box body*
4,1,4,$2,$3,$4,$5,$6,$7,$8,$9,$2,$3,0*
0 Add four circle primitives for the rounded corners*
1,1,$1+$1,$2,$3*
1,1,$1+$1,$4,$5*
1,1,$1+$1,$6,$7*
1,1,$1+$1,$8,$9*
0 Add four rect primitives between the rounded corners*
20,1,$1+$1,$2,$3,$4,$5,0*
20,1,$1+$1,$4,$5,$6,$7,0*
20,1,$1+$1,$6,$7,$8,$9,0*
20,1,$1+$1,$8,$9,$2,$3,0*%
G04 Aperture macros list end*
%ADD10C,1.750000*%
%ADD11C,3.987800*%
%ADD12C,3.300000*%
%ADD13RoundRect,0.250000X1.025000X1.000000X-1.025000X1.000000X-1.025000X-1.000000X1.025000X-1.000000X0*%
%ADD14C,0.500000*%
%ADD15C,3.200000*%
%ADD16RoundRect,0.225000X0.375000X-0.225000X0.375000X0.225000X-0.375000X0.225000X-0.375000X-0.225000X0*%
%ADD17R,2.000000X2.000000*%
%ADD18RoundRect,0.250000X0.262500X0.450000X-0.262500X0.450000X-0.262500X-0.450000X0.262500X-0.450000X0*%
%ADD19RoundRect,0.225000X-0.375000X0.225000X-0.375000X-0.225000X0.375000X-0.225000X0.375000X0.225000X0*%
%ADD20RoundRect,0.525400X0.900400X0.525400X-0.900400X0.525400X-0.900400X-0.525400X0.900400X-0.525400X0*%
%ADD21RoundRect,0.775400X-0.775400X-0.775400X0.775400X-0.775400X0.775400X0.775400X-0.775400X0.775400X0*%
%ADD22RoundRect,0.300400X-0.300400X1.000400X-0.300400X-1.000400X0.300400X-1.000400X0.300400X1.000400X0*%
%ADD23C,1.700000*%
G04 APERTURE END LIST*
D10*
%TO.C,SW10*%
X343700000Y-140050000D03*
D11*
X338620000Y-140050000D03*
D10*
X333540000Y-140050000D03*
D12*
X334810000Y-137510000D03*
D13*
X331260000Y-137510000D03*
X344710000Y-134970000D03*
D12*
X341160000Y-134970000D03*
%TD*%
D10*
%TO.C,SW34*%
X152540000Y-64760000D03*
D11*
X147460000Y-64760000D03*
D10*
X142380000Y-64760000D03*
D12*
X143650000Y-62220000D03*
D13*
X140100000Y-62220000D03*
X153550000Y-59680000D03*
D12*
X150000000Y-59680000D03*
%TD*%
D10*
%TO.C,SW19*%
X343690000Y-115160000D03*
D11*
X338610000Y-115160000D03*
D10*
X333530000Y-115160000D03*
D12*
X334800000Y-112620000D03*
D13*
X331250000Y-112620000D03*
X344700000Y-110080000D03*
D12*
X341150000Y-110080000D03*
%TD*%
D10*
%TO.C,SW33*%
X127205000Y-58000000D03*
D11*
X122125000Y-58000000D03*
D10*
X117045000Y-58000000D03*
D12*
X118315000Y-55460000D03*
D13*
X114765000Y-55460000D03*
X128215000Y-52920000D03*
D12*
X124665000Y-52920000D03*
%TD*%
D10*
%TO.C,SW38*%
X318245176Y-57840000D03*
D11*
X313165176Y-57840000D03*
D10*
X308085176Y-57840000D03*
D12*
X309355176Y-55300000D03*
D13*
X305805176Y-55300000D03*
X319255176Y-52760000D03*
D12*
X315705176Y-52760000D03*
%TD*%
D10*
%TO.C,SW27*%
X293030000Y-89620000D03*
D11*
X287950000Y-89620000D03*
D10*
X282870000Y-89620000D03*
D12*
X284140000Y-87080000D03*
D13*
X280590000Y-87080000D03*
X294040000Y-84540000D03*
D12*
X290490000Y-84540000D03*
%TD*%
D10*
%TO.C,SW17*%
X292990000Y-115170000D03*
D11*
X287910000Y-115170000D03*
D10*
X282830000Y-115170000D03*
D12*
X284100000Y-112630000D03*
D13*
X280550000Y-112630000D03*
X294000000Y-110090000D03*
D12*
X290450000Y-110090000D03*
%TD*%
D10*
%TO.C,SW2*%
X369140000Y-152680000D03*
D11*
X364060000Y-152680000D03*
D10*
X358980000Y-152680000D03*
D12*
X360250000Y-150140000D03*
D13*
X356700000Y-150140000D03*
X370150000Y-147600000D03*
D12*
X366600000Y-147600000D03*
%TD*%
D10*
%TO.C,SW36*%
X369150000Y-76910000D03*
D11*
X364070000Y-76910000D03*
D10*
X358990000Y-76910000D03*
D12*
X360260000Y-74370000D03*
D13*
X356710000Y-74370000D03*
X370160000Y-71830000D03*
D12*
X366610000Y-71830000D03*
%TD*%
D10*
%TO.C,SW30*%
X267564824Y-97660000D03*
D11*
X262484824Y-97660000D03*
D10*
X257404824Y-97660000D03*
D12*
X258674824Y-95120000D03*
D13*
X255124824Y-95120000D03*
X268574824Y-92580000D03*
D12*
X265024824Y-92580000D03*
%TD*%
D10*
%TO.C,SW35*%
X177920000Y-72720000D03*
D11*
X172840000Y-72720000D03*
D10*
X167760000Y-72720000D03*
D12*
X169030000Y-70180000D03*
D13*
X165480000Y-70180000D03*
X178930000Y-67640000D03*
D12*
X175380000Y-67640000D03*
%TD*%
D10*
%TO.C,SW29*%
X343630000Y-89580000D03*
D11*
X338550000Y-89580000D03*
D10*
X333470000Y-89580000D03*
D12*
X334740000Y-87040000D03*
D13*
X331190000Y-87040000D03*
X344640000Y-84500000D03*
D12*
X341090000Y-84500000D03*
%TD*%
D10*
%TO.C,SW28*%
X318450000Y-82870000D03*
D11*
X313370000Y-82870000D03*
D10*
X308290000Y-82870000D03*
D12*
X309560000Y-80330000D03*
D13*
X306010000Y-80330000D03*
X319460000Y-77790000D03*
D12*
X315910000Y-77790000D03*
%TD*%
D10*
%TO.C,SW40*%
X267620000Y-72400000D03*
D11*
X262540000Y-72400000D03*
D10*
X257460000Y-72400000D03*
D12*
X258730000Y-69860000D03*
D13*
X255180000Y-69860000D03*
X268630000Y-67320000D03*
D12*
X265080000Y-67320000D03*
%TD*%
D10*
%TO.C,SW12*%
X101740000Y-115420000D03*
D11*
X96660000Y-115420000D03*
D10*
X91580000Y-115420000D03*
D12*
X92850000Y-112880000D03*
D13*
X89300000Y-112880000D03*
X102750000Y-110340000D03*
D12*
X99200000Y-110340000D03*
%TD*%
D10*
%TO.C,SW13*%
X127180000Y-108560000D03*
D11*
X122100000Y-108560000D03*
D10*
X117020000Y-108560000D03*
D12*
X118290000Y-106020000D03*
D13*
X114740000Y-106020000D03*
X128190000Y-103480000D03*
D12*
X124640000Y-103480000D03*
%TD*%
D10*
%TO.C,SW41*%
X203510000Y-158360000D03*
D11*
X198430000Y-158360000D03*
D10*
X193350000Y-158360000D03*
D12*
X194620000Y-155820000D03*
D13*
X191070000Y-155820000D03*
X204520000Y-153280000D03*
D12*
X200970000Y-153280000D03*
%TD*%
D10*
%TO.C,SW4*%
X293030000Y-140490000D03*
D11*
X287950000Y-140490000D03*
D10*
X282870000Y-140490000D03*
D12*
X284140000Y-137950000D03*
D13*
X280590000Y-137950000D03*
X294040000Y-135410000D03*
D12*
X290490000Y-135410000D03*
%TD*%
D10*
%TO.C,SW22*%
X101780000Y-90040000D03*
D11*
X96700000Y-90040000D03*
D10*
X91620000Y-90040000D03*
D12*
X92890000Y-87500000D03*
D13*
X89340000Y-87500000D03*
X102790000Y-84960000D03*
D12*
X99240000Y-84960000D03*
%TD*%
D10*
%TO.C,SW11*%
X267480000Y-148190000D03*
D11*
X262400000Y-148190000D03*
D10*
X257320000Y-148190000D03*
D12*
X258590000Y-145650000D03*
D13*
X255040000Y-145650000D03*
X268490000Y-143110000D03*
D12*
X264940000Y-143110000D03*
%TD*%
D10*
%TO.C,SW3*%
X101800000Y-140600000D03*
D11*
X96720000Y-140600000D03*
D10*
X91640000Y-140600000D03*
D12*
X92910000Y-138060000D03*
D13*
X89360000Y-138060000D03*
X102810000Y-135520000D03*
D12*
X99260000Y-135520000D03*
%TD*%
D10*
%TO.C,SW16*%
X369210000Y-127110000D03*
D11*
X364130000Y-127110000D03*
D10*
X359050000Y-127110000D03*
D12*
X360320000Y-124570000D03*
D13*
X356770000Y-124570000D03*
X370220000Y-122030000D03*
D12*
X366670000Y-122030000D03*
%TD*%
D10*
%TO.C,SW39*%
X343780000Y-64120000D03*
D11*
X338700000Y-64120000D03*
D10*
X333620000Y-64120000D03*
D12*
X334890000Y-61580000D03*
D13*
X331340000Y-61580000D03*
X344790000Y-59040000D03*
D12*
X341240000Y-59040000D03*
%TD*%
D10*
%TO.C,SW24*%
X152600000Y-90030000D03*
D11*
X147520000Y-90030000D03*
D10*
X142440000Y-90030000D03*
D12*
X143710000Y-87490000D03*
D13*
X140160000Y-87490000D03*
X153610000Y-84950000D03*
D12*
X150060000Y-84950000D03*
%TD*%
D10*
%TO.C,SW31*%
X76500000Y-76630000D03*
D11*
X71420000Y-76630000D03*
D10*
X66340000Y-76630000D03*
D12*
X67610000Y-74090000D03*
D13*
X64060000Y-74090000D03*
X77510000Y-71550000D03*
D12*
X73960000Y-71550000D03*
%TD*%
D10*
%TO.C,SW25*%
X177890000Y-98150000D03*
D11*
X172810000Y-98150000D03*
D10*
X167730000Y-98150000D03*
D12*
X169000000Y-95610000D03*
D13*
X165450000Y-95610000D03*
X178900000Y-93070000D03*
D12*
X175350000Y-93070000D03*
%TD*%
D10*
%TO.C,SW20*%
X267660000Y-123230000D03*
D11*
X262580000Y-123230000D03*
D10*
X257500000Y-123230000D03*
D12*
X258770000Y-120690000D03*
D13*
X255220000Y-120690000D03*
X268670000Y-118150000D03*
D12*
X265120000Y-118150000D03*
%TD*%
D10*
%TO.C,SW8*%
X177880000Y-149130000D03*
D11*
X172800000Y-149130000D03*
D10*
X167720000Y-149130000D03*
D12*
X168990000Y-146590000D03*
D13*
X165440000Y-146590000D03*
X178890000Y-144050000D03*
D12*
X175340000Y-144050000D03*
%TD*%
D10*
%TO.C,SW14*%
X152570000Y-114950000D03*
D11*
X147490000Y-114950000D03*
D10*
X142410000Y-114950000D03*
D12*
X143680000Y-112410000D03*
D13*
X140130000Y-112410000D03*
X153580000Y-109870000D03*
D12*
X150030000Y-109870000D03*
%TD*%
D10*
%TO.C,SW5*%
X127160000Y-134520000D03*
D11*
X122080000Y-134520000D03*
D10*
X117000000Y-134520000D03*
D12*
X118270000Y-131980000D03*
D13*
X114720000Y-131980000D03*
X128170000Y-129440000D03*
D12*
X124620000Y-129440000D03*
%TD*%
D10*
%TO.C,SW21*%
X76485176Y-101770000D03*
D11*
X71405176Y-101770000D03*
D10*
X66325176Y-101770000D03*
D12*
X67595176Y-99230000D03*
D13*
X64045176Y-99230000D03*
X77495176Y-96690000D03*
D12*
X73945176Y-96690000D03*
%TD*%
D10*
%TO.C,SW23*%
X127120000Y-83190000D03*
D11*
X122040000Y-83190000D03*
D10*
X116960000Y-83190000D03*
D12*
X118230000Y-80650000D03*
D13*
X114680000Y-80650000D03*
X128130000Y-78110000D03*
D12*
X124580000Y-78110000D03*
%TD*%
D10*
%TO.C,SW6*%
X318400000Y-133560000D03*
D11*
X313320000Y-133560000D03*
D10*
X308240000Y-133560000D03*
D12*
X309510000Y-131020000D03*
D13*
X305960000Y-131020000D03*
X319410000Y-128480000D03*
D12*
X315860000Y-128480000D03*
%TD*%
D10*
%TO.C,SW37*%
X292945176Y-63930000D03*
D11*
X287865176Y-63930000D03*
D10*
X282785176Y-63930000D03*
D12*
X284055176Y-61390000D03*
D13*
X280505176Y-61390000D03*
X293955176Y-58850000D03*
D12*
X290405176Y-58850000D03*
%TD*%
D10*
%TO.C,SW9*%
X76530000Y-127140000D03*
D11*
X71450000Y-127140000D03*
D10*
X66370000Y-127140000D03*
D12*
X67640000Y-124600000D03*
D13*
X64090000Y-124600000D03*
X77540000Y-122060000D03*
D12*
X73990000Y-122060000D03*
%TD*%
D10*
%TO.C,SW42*%
X242220000Y-157840000D03*
D11*
X237140000Y-157840000D03*
D10*
X232060000Y-157840000D03*
D12*
X233330000Y-155300000D03*
D13*
X229780000Y-155300000D03*
X243230000Y-152760000D03*
D12*
X239680000Y-152760000D03*
%TD*%
D10*
%TO.C,SW7*%
X152564824Y-140780000D03*
D11*
X147484824Y-140780000D03*
D10*
X142404824Y-140780000D03*
D12*
X143674824Y-138240000D03*
D13*
X140124824Y-138240000D03*
X153574824Y-135700000D03*
D12*
X150024824Y-135700000D03*
%TD*%
D10*
%TO.C,SW32*%
X101730000Y-64450000D03*
D11*
X96650000Y-64450000D03*
D10*
X91570000Y-64450000D03*
D12*
X92840000Y-61910000D03*
D13*
X89290000Y-61910000D03*
X102740000Y-59370000D03*
D12*
X99190000Y-59370000D03*
%TD*%
D10*
%TO.C,SW18*%
X318210000Y-108170000D03*
D11*
X313130000Y-108170000D03*
D10*
X308050000Y-108170000D03*
D12*
X309320000Y-105630000D03*
D13*
X305770000Y-105630000D03*
X319220000Y-103090000D03*
D12*
X315670000Y-103090000D03*
%TD*%
D10*
%TO.C,SW15*%
X177894824Y-123540000D03*
D11*
X172814824Y-123540000D03*
D10*
X167734824Y-123540000D03*
D12*
X169004824Y-121000000D03*
D13*
X165454824Y-121000000D03*
X178904824Y-118460000D03*
D12*
X175354824Y-118460000D03*
%TD*%
D10*
%TO.C,SW1*%
X76480000Y-152170000D03*
D11*
X71400000Y-152170000D03*
D10*
X66320000Y-152170000D03*
D12*
X67590000Y-149630000D03*
D13*
X64040000Y-149630000D03*
X77490000Y-147090000D03*
D12*
X73940000Y-147090000D03*
%TD*%
D10*
%TO.C,SW26*%
X369140000Y-102070000D03*
D11*
X364060000Y-102070000D03*
D10*
X358980000Y-102070000D03*
D12*
X360250000Y-99530000D03*
D13*
X356700000Y-99530000D03*
X370150000Y-96990000D03*
D12*
X366600000Y-96990000D03*
%TD*%
D14*
%TO.C,B03*%
X215600000Y-120130000D03*
X220600000Y-120130000D03*
X215600000Y-119380000D03*
X215600000Y-119380000D03*
X220600000Y-119380000D03*
X220600000Y-119380000D03*
X215600000Y-118630000D03*
X220600000Y-118630000D03*
X215600000Y-117880000D03*
X220600000Y-117880000D03*
X215600000Y-117130000D03*
X220600000Y-117130000D03*
X215600000Y-116380000D03*
X220600000Y-116380000D03*
X215600000Y-115630000D03*
X220600000Y-115630000D03*
X215600000Y-114880000D03*
X220600000Y-114880000D03*
X215600000Y-114130000D03*
X220600000Y-114130000D03*
X215600000Y-113380000D03*
X220600000Y-113380000D03*
X215600000Y-112630000D03*
X220600000Y-112630000D03*
%TD*%
D15*
%TO.C,H4*%
X210903806Y-69696194D03*
%TD*%
%TO.C,H7*%
X53566193Y-66006193D03*
%TD*%
%TO.C,H1*%
X225406194Y-69786194D03*
%TD*%
%TO.C,H2*%
X210803806Y-167373806D03*
%TD*%
%TO.C,H5*%
X382643806Y-65986194D03*
%TD*%
%TO.C,H8*%
X53566194Y-164923806D03*
%TD*%
D14*
%TO.C,B02*%
X215650000Y-73880000D03*
X220650000Y-73880000D03*
X215650000Y-73130000D03*
X215650000Y-73130000D03*
X220650000Y-73130000D03*
X220650000Y-73130000D03*
X215650000Y-72380000D03*
X220650000Y-72380000D03*
X215650000Y-71630000D03*
X220650000Y-71630000D03*
X215650000Y-70880000D03*
X220650000Y-70880000D03*
X215650000Y-70130000D03*
X220650000Y-70130000D03*
X215650000Y-69380000D03*
X220650000Y-69380000D03*
X215650000Y-68630000D03*
X220650000Y-68630000D03*
X215650000Y-67880000D03*
X220650000Y-67880000D03*
X215650000Y-67130000D03*
X220650000Y-67130000D03*
X215650000Y-66380000D03*
X220650000Y-66380000D03*
%TD*%
%TO.C,B01*%
X220620000Y-163230000D03*
X215620000Y-163230000D03*
X220620000Y-163980000D03*
X220620000Y-163980000D03*
X215620000Y-163980000D03*
X215620000Y-163980000D03*
X220620000Y-164730000D03*
X215620000Y-164730000D03*
X220620000Y-165480000D03*
X215620000Y-165480000D03*
X220620000Y-166230000D03*
X215620000Y-166230000D03*
X220620000Y-166980000D03*
X215620000Y-166980000D03*
X220620000Y-167730000D03*
X215620000Y-167730000D03*
X220620000Y-168480000D03*
X215620000Y-168480000D03*
X220620000Y-169230000D03*
X215620000Y-169230000D03*
X220620000Y-169980000D03*
X215620000Y-169980000D03*
X220620000Y-170730000D03*
X215620000Y-170730000D03*
%TD*%
D15*
%TO.C,H3*%
X225436194Y-167353806D03*
%TD*%
%TO.C,H6*%
X382643806Y-164903806D03*
%TD*%
D16*
%TO.C,D33*%
X112275000Y-60725000D03*
X112275000Y-57425000D03*
%TD*%
%TO.C,D13*%
X112210000Y-111240000D03*
X112210000Y-107940000D03*
%TD*%
%TO.C,D39*%
X328850000Y-66770000D03*
X328850000Y-63470000D03*
%TD*%
D17*
%TO.C,TP4*%
X240100000Y-88130000D03*
%TD*%
D16*
%TO.C,D37*%
X278030000Y-66610000D03*
X278030000Y-63310000D03*
%TD*%
D17*
%TO.C,TP3*%
X196380000Y-88090000D03*
%TD*%
D16*
%TO.C,D25*%
X162950000Y-100790000D03*
X162950000Y-97490000D03*
%TD*%
%TO.C,D22*%
X86890000Y-92730000D03*
X86890000Y-89430000D03*
%TD*%
%TO.C,D36*%
X354230000Y-79607500D03*
X354230000Y-76307500D03*
%TD*%
%TO.C,D8*%
X328700000Y-142767500D03*
X328700000Y-139467500D03*
%TD*%
%TO.C,D1*%
X61550000Y-154860000D03*
X61550000Y-151560000D03*
%TD*%
%TO.C,D5*%
X112220000Y-137207500D03*
X112220000Y-133907500D03*
%TD*%
%TO.C,D4*%
X278110000Y-143177500D03*
X278110000Y-139877500D03*
%TD*%
%TO.C,D24*%
X137700000Y-92730000D03*
X137700000Y-89430000D03*
%TD*%
%TO.C,D3*%
X86880000Y-143310000D03*
X86880000Y-140010000D03*
%TD*%
%TO.C,D15*%
X162950000Y-126240000D03*
X162950000Y-122940000D03*
%TD*%
%TO.C,D14*%
X137670000Y-117657500D03*
X137670000Y-114357500D03*
%TD*%
%TO.C,D20*%
X252710000Y-125910000D03*
X252710000Y-122610000D03*
%TD*%
%TO.C,D32*%
X86800000Y-67110000D03*
X86800000Y-63810000D03*
%TD*%
%TO.C,D21*%
X61560000Y-104480000D03*
X61560000Y-101180000D03*
%TD*%
%TO.C,D19*%
X328730000Y-117780000D03*
X328730000Y-114480000D03*
%TD*%
%TO.C,D26*%
X354230000Y-104790000D03*
X354230000Y-101490000D03*
%TD*%
%TO.C,D12*%
X86800000Y-118067500D03*
X86800000Y-114767500D03*
%TD*%
%TO.C,D2*%
X354220000Y-155397500D03*
X354220000Y-152097500D03*
%TD*%
%TO.C,D40*%
X252720000Y-75107500D03*
X252720000Y-71807500D03*
%TD*%
%TO.C,D10*%
X252510000Y-150947500D03*
X252510000Y-147647500D03*
%TD*%
%TO.C,D35*%
X162930000Y-75447500D03*
X162930000Y-72147500D03*
%TD*%
D18*
%TO.C,R2*%
X231932500Y-88080000D03*
X230107500Y-88080000D03*
%TD*%
D17*
%TO.C,TP2*%
X243250000Y-88110000D03*
%TD*%
D16*
%TO.C,D18*%
X303290000Y-110867500D03*
X303290000Y-107567500D03*
%TD*%
%TO.C,D34*%
X137630000Y-67430000D03*
X137630000Y-64130000D03*
%TD*%
%TO.C,D29*%
X328680000Y-92247500D03*
X328680000Y-88947500D03*
%TD*%
%TO.C,D28*%
X303560000Y-85590000D03*
X303560000Y-82290000D03*
%TD*%
D18*
%TO.C,R4*%
X236492500Y-88040000D03*
X234667500Y-88040000D03*
%TD*%
D19*
%TO.C,D42*%
X227310000Y-157267500D03*
X227310000Y-160567500D03*
%TD*%
D16*
%TO.C,D23*%
X112191800Y-85876400D03*
X112191800Y-82576400D03*
%TD*%
%TO.C,D38*%
X303330000Y-60517500D03*
X303330000Y-57217500D03*
%TD*%
%TO.C,D30*%
X252570000Y-100357500D03*
X252570000Y-97057500D03*
%TD*%
%TO.C,D6*%
X303480000Y-136247500D03*
X303480000Y-132947500D03*
%TD*%
%TO.C,D9*%
X162950000Y-151837500D03*
X162950000Y-148537500D03*
%TD*%
D17*
%TO.C,TP1*%
X192460000Y-88140000D03*
%TD*%
D16*
%TO.C,D31*%
X61590000Y-79320000D03*
X61590000Y-76020000D03*
%TD*%
D19*
%TO.C,D41*%
X188610000Y-157770000D03*
X188610000Y-161070000D03*
%TD*%
D20*
%TO.C,U2*%
X245265000Y-68153100D03*
X245265000Y-70693100D03*
X245265000Y-73233100D03*
X245265000Y-75773100D03*
X245265000Y-78313100D03*
X245265000Y-80853100D03*
X245265000Y-83393100D03*
X229100000Y-83393100D03*
X229100000Y-80853100D03*
X229100000Y-78313100D03*
X229100000Y-75773100D03*
X229100000Y-73233100D03*
X229100000Y-70693100D03*
X229100000Y-68153100D03*
D21*
X241655000Y-76173100D03*
X241655000Y-72773100D03*
D22*
X233400000Y-85010000D03*
X231495000Y-85010000D03*
D23*
X238480000Y-67204600D03*
X235940000Y-67204600D03*
X238480000Y-69744600D03*
X235940000Y-69744600D03*
%TD*%
D18*
%TO.C,806K1*%
X201112500Y-87990000D03*
X199287500Y-87990000D03*
%TD*%
D16*
%TO.C,D17*%
X278110000Y-117897500D03*
X278110000Y-114597500D03*
%TD*%
%TO.C,D16*%
X354310000Y-129800000D03*
X354310000Y-126500000D03*
%TD*%
%TO.C,D27*%
X278100000Y-92280000D03*
X278100000Y-88980000D03*
%TD*%
%TO.C,D7*%
X137710000Y-143507500D03*
X137710000Y-140207500D03*
%TD*%
D18*
%TO.C,2M1*%
X205032500Y-88140000D03*
X203207500Y-88140000D03*
%TD*%
D20*
%TO.C,U1*%
X205930000Y-67970000D03*
X205930000Y-70510000D03*
X205930000Y-73050000D03*
X205930000Y-75590000D03*
X205930000Y-78130000D03*
X205930000Y-80670000D03*
X205930000Y-83210000D03*
X189765000Y-83210000D03*
X189765000Y-80670000D03*
X189765000Y-78130000D03*
X189765000Y-75590000D03*
X189765000Y-73050000D03*
X189765000Y-70510000D03*
X189765000Y-67970000D03*
D21*
X202320000Y-75990000D03*
X202320000Y-72590000D03*
D22*
X194065000Y-84826900D03*
X192160000Y-84826900D03*
D23*
X199145000Y-67021500D03*
X196605000Y-67021500D03*
X199145000Y-69561500D03*
X196605000Y-69561500D03*
%TD*%
D16*
%TO.C,D11*%
X61630000Y-129850000D03*
X61630000Y-126550000D03*
%TD*%
M02*
