M48
; DRILL file {KiCad 9.0.7} date 2026-03-25T16:30:28-0400
; FORMAT={-:-/ absolute / metric / decimal}
; #@! TF.CreationDate,2026-03-25T16:30:28-04:00
; #@! TF.GenerationSoftware,Kicad,Pcbnew,9.0.7
; #@! TF.FileFunction,NonPlated,1,2,NPTH
FMAT,2
METRIC
; #@! TA.AperFunction,NonPlated,NPTH,ComponentDrill
T1C0.500
; #@! TA.AperFunction,NonPlated,NPTH,ComponentDrill
T2C1.750
; #@! TA.AperFunction,NonPlated,NPTH,ComponentDrill
T3C3.200
; #@! TA.AperFunction,NonPlated,NPTH,ComponentDrill
T4C3.988
%
G90
G05
T1
X215.6Y-112.63
X215.6Y-113.38
X215.6Y-114.13
X215.6Y-114.88
X215.6Y-115.63
X215.6Y-116.38
X215.6Y-117.13
X215.6Y-117.88
X215.6Y-118.63
X215.6Y-119.38
X215.6Y-119.38
X215.6Y-120.13
X215.62Y-163.23
X215.62Y-163.98
X215.62Y-163.98
X215.62Y-164.73
X215.62Y-165.48
X215.62Y-166.23
X215.62Y-166.98
X215.62Y-167.73
X215.62Y-168.48
X215.62Y-169.23
X215.62Y-169.98
X215.62Y-170.73
X215.65Y-66.38
X215.65Y-67.13
X215.65Y-67.88
X215.65Y-68.63
X215.65Y-69.38
X215.65Y-70.13
X215.65Y-70.88
X215.65Y-71.63
X215.65Y-72.38
X215.65Y-73.13
X215.65Y-73.13
X215.65Y-73.88
X220.6Y-112.63
X220.6Y-113.38
X220.6Y-114.13
X220.6Y-114.88
X220.6Y-115.63
X220.6Y-116.38
X220.6Y-117.13
X220.6Y-117.88
X220.6Y-118.63
X220.6Y-119.38
X220.6Y-119.38
X220.6Y-120.13
X220.62Y-163.23
X220.62Y-163.98
X220.62Y-163.98
X220.62Y-164.73
X220.62Y-165.48
X220.62Y-166.23
X220.62Y-166.98
X220.62Y-167.73
X220.62Y-168.48
X220.62Y-169.23
X220.62Y-169.98
X220.62Y-170.73
X220.65Y-66.38
X220.65Y-67.13
X220.65Y-67.88
X220.65Y-68.63
X220.65Y-69.38
X220.65Y-70.13
X220.65Y-70.88
X220.65Y-71.63
X220.65Y-72.38
X220.65Y-73.13
X220.65Y-73.13
X220.65Y-73.88
T2
X66.35Y-101.78
X66.35Y-152.16
X66.36Y-76.61
X66.39Y-127.12
X76.51Y-101.78
X76.51Y-152.16
X76.52Y-76.61
X76.55Y-127.12
X91.55Y-64.43
X91.58Y-115.42
X91.59Y-90.05
X91.61Y-140.56
X101.71Y-64.43
X101.74Y-115.42
X101.75Y-90.05
X101.77Y-140.56
X116.985Y-58.02
X117.01Y-83.2
X117.02Y-108.56
X117.03Y-134.49
X127.145Y-58.02
X127.17Y-83.2
X127.18Y-108.56
X127.19Y-134.49
X142.39Y-90.0
X142.4Y-64.74
X142.405Y-140.78
X142.415Y-114.93
X152.55Y-90.0
X152.56Y-64.74
X152.565Y-140.78
X152.575Y-114.93
X167.705Y-72.75
X167.72Y-98.09
X167.72Y-149.13
X167.735Y-123.54
X177.865Y-72.75
X177.88Y-98.09
X177.88Y-149.13
X177.895Y-123.54
X193.35Y-158.34
X203.51Y-158.34
X232.06Y-157.84
X242.22Y-157.84
X257.32Y-148.19
X257.405Y-97.66
X257.42Y-72.39
X257.53Y-123.23
X267.48Y-148.19
X267.565Y-97.66
X267.58Y-72.39
X267.69Y-123.23
X282.745Y-63.92
X282.875Y-89.65
X282.875Y-115.22
X282.89Y-140.48
X292.905Y-63.92
X293.035Y-89.65
X293.035Y-115.22
X293.05Y-140.48
X308.14Y-57.86
X308.14Y-108.18
X308.24Y-133.55
X308.325Y-82.91
X318.3Y-57.86
X318.3Y-108.18
X318.4Y-133.55
X318.485Y-82.91
X333.515Y-89.62
X333.515Y-115.2
X333.54Y-140.05
X333.64Y-64.15
X343.675Y-89.62
X343.675Y-115.2
X343.7Y-140.05
X343.8Y-64.15
X359.0Y-152.7
X359.04Y-76.95
X359.04Y-102.07
X359.04Y-127.13
X369.16Y-152.7
X369.2Y-76.95
X369.2Y-102.07
X369.2Y-127.13
T3
X53.566Y-66.006
X53.566Y-164.924
X210.804Y-167.374
X210.904Y-69.696
X225.406Y-69.786
X225.436Y-167.354
X382.644Y-65.986
X382.644Y-164.904
T4
X71.43Y-101.78
X71.43Y-152.16
X71.44Y-76.61
X71.47Y-127.12
X96.63Y-64.43
X96.66Y-115.42
X96.67Y-90.05
X96.69Y-140.56
X122.065Y-58.02
X122.09Y-83.2
X122.1Y-108.56
X122.11Y-134.49
X147.47Y-90.0
X147.48Y-64.74
X147.485Y-140.78
X147.495Y-114.93
X172.785Y-72.75
X172.8Y-98.09
X172.8Y-149.13
X172.815Y-123.54
X198.43Y-158.34
X237.14Y-157.84
X262.4Y-148.19
X262.485Y-97.66
X262.5Y-72.39
X262.61Y-123.23
X287.825Y-63.92
X287.955Y-89.65
X287.955Y-115.22
X287.97Y-140.48
X313.22Y-57.86
X313.22Y-108.18
X313.32Y-133.55
X313.405Y-82.91
X338.595Y-89.62
X338.595Y-115.2
X338.62Y-140.05
X338.72Y-64.15
X364.08Y-152.7
X364.12Y-76.95
X364.12Y-102.07
X364.12Y-127.13
M30
