M48
; DRILL file {KiCad 9.0.7} date 2026-03-31T17:35:57-0400
; FORMAT={-:-/ absolute / metric / decimal}
; #@! TF.CreationDate,2026-03-31T17:35:57-04:00
; #@! TF.GenerationSoftware,Kicad,Pcbnew,9.0.7
; #@! TF.FileFunction,NonPlated,1,2,NPTH
FMAT,2
METRIC
; #@! TA.AperFunction,NonPlated,NPTH,ComponentDrill
T1C0.500
; #@! TA.AperFunction,NonPlated,NPTH,ComponentDrill
T2C1.750
; #@! TA.AperFunction,NonPlated,NPTH,ComponentDrill
T3C3.200
; #@! TA.AperFunction,NonPlated,NPTH,ComponentDrill
T4C3.988
%
G90
G05
T1
X215.6Y-112.63
X215.6Y-113.38
X215.6Y-114.13
X215.6Y-114.88
X215.6Y-115.63
X215.6Y-116.38
X215.6Y-117.13
X215.6Y-117.88
X215.6Y-118.63
X215.6Y-119.38
X215.6Y-119.38
X215.6Y-120.13
X215.62Y-163.23
X215.62Y-163.98
X215.62Y-163.98
X215.62Y-164.73
X215.62Y-165.48
X215.62Y-166.23
X215.62Y-166.98
X215.62Y-167.73
X215.62Y-168.48
X215.62Y-169.23
X215.62Y-169.98
X215.62Y-170.73
X215.65Y-66.38
X215.65Y-67.13
X215.65Y-67.88
X215.65Y-68.63
X215.65Y-69.38
X215.65Y-70.13
X215.65Y-70.88
X215.65Y-71.63
X215.65Y-72.38
X215.65Y-73.13
X215.65Y-73.13
X215.65Y-73.88
X220.6Y-112.63
X220.6Y-113.38
X220.6Y-114.13
X220.6Y-114.88
X220.6Y-115.63
X220.6Y-116.38
X220.6Y-117.13
X220.6Y-117.88
X220.6Y-118.63
X220.6Y-119.38
X220.6Y-119.38
X220.6Y-120.13
X220.62Y-163.23
X220.62Y-163.98
X220.62Y-163.98
X220.62Y-164.73
X220.62Y-165.48
X220.62Y-166.23
X220.62Y-166.98
X220.62Y-167.73
X220.62Y-168.48
X220.62Y-169.23
X220.62Y-169.98
X220.62Y-170.73
X220.65Y-66.38
X220.65Y-67.13
X220.65Y-67.88
X220.65Y-68.63
X220.65Y-69.38
X220.65Y-70.13
X220.65Y-70.88
X220.65Y-71.63
X220.65Y-72.38
X220.65Y-73.13
X220.65Y-73.13
X220.65Y-73.88
T2
X66.32Y-152.17
X66.325Y-101.77
X66.34Y-76.63
X66.37Y-127.14
X76.48Y-152.17
X76.485Y-101.77
X76.5Y-76.63
X76.53Y-127.14
X91.57Y-64.45
X91.58Y-115.42
X91.62Y-90.04
X91.64Y-140.6
X101.73Y-64.45
X101.74Y-115.42
X101.78Y-90.04
X101.8Y-140.6
X116.96Y-83.19
X117.0Y-134.52
X117.02Y-108.56
X117.045Y-58.0
X127.12Y-83.19
X127.16Y-134.52
X127.18Y-108.56
X127.205Y-58.0
X142.38Y-64.76
X142.405Y-140.78
X142.41Y-114.95
X142.44Y-90.03
X152.54Y-64.76
X152.565Y-140.78
X152.57Y-114.95
X152.6Y-90.03
X167.72Y-149.13
X167.73Y-98.15
X167.735Y-123.54
X167.76Y-72.72
X177.88Y-149.13
X177.89Y-98.15
X177.895Y-123.54
X177.92Y-72.72
X193.35Y-158.36
X203.51Y-158.36
X232.06Y-157.84
X242.22Y-157.84
X257.32Y-148.19
X257.405Y-97.66
X257.46Y-72.4
X257.5Y-123.23
X267.48Y-148.19
X267.565Y-97.66
X267.62Y-72.4
X267.66Y-123.23
X282.785Y-63.93
X282.83Y-115.17
X282.87Y-89.62
X282.87Y-140.49
X292.945Y-63.93
X292.99Y-115.17
X293.03Y-89.62
X293.03Y-140.49
X308.05Y-108.17
X308.085Y-57.84
X308.24Y-133.56
X308.29Y-82.87
X318.21Y-108.17
X318.245Y-57.84
X318.4Y-133.56
X318.45Y-82.87
X333.47Y-89.58
X333.53Y-115.16
X333.54Y-140.05
X333.62Y-64.12
X343.63Y-89.58
X343.69Y-115.16
X343.7Y-140.05
X343.78Y-64.12
X358.98Y-102.07
X358.98Y-152.68
X358.99Y-76.91
X359.05Y-127.11
X369.14Y-102.07
X369.14Y-152.68
X369.15Y-76.91
X369.21Y-127.11
T3
X53.566Y-66.006
X53.566Y-164.924
X210.804Y-167.374
X210.904Y-69.696
X225.406Y-69.786
X225.436Y-167.354
X382.644Y-65.986
X382.644Y-164.904
T4
X71.4Y-152.17
X71.405Y-101.77
X71.42Y-76.63
X71.45Y-127.14
X96.65Y-64.45
X96.66Y-115.42
X96.7Y-90.04
X96.72Y-140.6
X122.04Y-83.19
X122.08Y-134.52
X122.1Y-108.56
X122.125Y-58.0
X147.46Y-64.76
X147.485Y-140.78
X147.49Y-114.95
X147.52Y-90.03
X172.8Y-149.13
X172.81Y-98.15
X172.815Y-123.54
X172.84Y-72.72
X198.43Y-158.36
X237.14Y-157.84
X262.4Y-148.19
X262.485Y-97.66
X262.54Y-72.4
X262.58Y-123.23
X287.865Y-63.93
X287.91Y-115.17
X287.95Y-89.62
X287.95Y-140.49
X313.13Y-108.17
X313.165Y-57.84
X313.32Y-133.56
X313.37Y-82.87
X338.55Y-89.58
X338.61Y-115.16
X338.62Y-140.05
X338.7Y-64.12
X364.06Y-102.07
X364.06Y-152.68
X364.07Y-76.91
X364.13Y-127.11
M30
