M48
; DRILL file {KiCad 9.0.7} date 2026-03-25T16:30:28-0400
; FORMAT={-:-/ absolute / metric / decimal}
; #@! TF.CreationDate,2026-03-25T16:30:28-04:00
; #@! TF.GenerationSoftware,Kicad,Pcbnew,9.0.7
; #@! TF.FileFunction,Plated,1,2,PTH
FMAT,2
METRIC
; #@! TA.AperFunction,Plated,PTH,ViaDrill
T1C0.300
; #@! TA.AperFunction,Plated,PTH,ComponentDrill
T2C2.500
; #@! TA.AperFunction,Plated,PTH,ComponentDrill
T3C3.000
%
G90
G05
T1
X77.56Y-112.05
X84.02Y-114.23
X87.96Y-122.88
X91.18Y-76.22
X91.49Y-72.39
X105.02Y-122.22
X105.83Y-80.9
X109.53Y-86.36
X118.31Y-72.32
X118.34Y-75.03
X135.01Y-96.58
X138.46Y-71.95
X138.65Y-98.26
X140.41Y-77.07
X156.74Y-106.75
X158.27Y-111.93
X163.81Y-79.33
X179.48Y-82.76
X182.64Y-79.47
X185.14Y-83.5
X199.5Y-80.16
X201.82Y-82.16
X203.05Y-81.29
X207.805Y-76.061
X208.405Y-74.612
X208.8Y-78.3
X231.98Y-75.96
X233.42Y-80.53
X236.29Y-72.48
X247.47Y-79.39
X248.81Y-127.43
X248.95Y-79.5
X249.12Y-73.78
X250.62Y-78.54
X250.668Y-120.0
X251.594Y-90.576
X254.74Y-106.06
X256.44Y-82.17
X257.49Y-83.98
X280.47Y-68.33
X287.37Y-97.52
X287.5Y-126.51
X298.12Y-89.79
X300.24Y-78.01
X300.89Y-110.87
X303.04Y-115.16
X305.05Y-89.23
X323.46Y-94.29
X324.95Y-101.86
X328.75Y-71.4
X330.88Y-99.52
X337.66Y-128.97
X353.83Y-109.66
T2
X202.32Y-72.59
X202.32Y-75.99
X241.655Y-72.773
X241.655Y-76.173
T3
X67.62Y-99.24
X67.62Y-149.62
X67.63Y-74.07
X67.66Y-124.58
X73.97Y-96.7
X73.97Y-147.08
X73.98Y-71.53
X74.01Y-122.04
X92.82Y-61.89
X92.85Y-112.88
X92.86Y-87.51
X92.88Y-138.02
X99.17Y-59.35
X99.2Y-110.34
X99.21Y-84.97
X99.23Y-135.48
X118.255Y-55.48
X118.28Y-80.66
X118.29Y-106.02
X118.3Y-131.95
X124.605Y-52.94
X124.63Y-78.12
X124.64Y-103.48
X124.65Y-129.41
X143.66Y-87.46
X143.67Y-62.2
X143.675Y-138.24
X143.685Y-112.39
X150.01Y-84.92
X150.02Y-59.66
X150.025Y-135.7
X150.035Y-109.85
X168.975Y-70.21
X168.99Y-95.55
X168.99Y-146.59
X169.005Y-121.0
X175.325Y-67.67
X175.34Y-93.01
X175.34Y-144.05
X175.355Y-118.46
X194.62Y-155.8
X200.97Y-153.26
X233.33Y-155.3
X239.68Y-152.76
X258.59Y-145.65
X258.675Y-95.12
X258.69Y-69.85
X258.8Y-120.69
X264.94Y-143.11
X265.025Y-92.58
X265.04Y-67.31
X265.15Y-118.15
X284.015Y-61.38
X284.145Y-87.11
X284.145Y-112.68
X284.16Y-137.94
X290.365Y-58.84
X290.495Y-84.57
X290.495Y-110.14
X290.51Y-135.4
X309.41Y-55.32
X309.41Y-105.64
X309.51Y-131.01
X309.595Y-80.37
X315.76Y-52.78
X315.76Y-103.1
X315.86Y-128.47
X315.945Y-77.83
X334.785Y-87.08
X334.785Y-112.66
X334.81Y-137.51
X334.91Y-61.61
X341.135Y-84.54
X341.135Y-110.12
X341.16Y-134.97
X341.26Y-59.07
X360.27Y-150.16
X360.31Y-74.41
X360.31Y-99.53
X360.31Y-124.59
X366.62Y-147.62
X366.66Y-71.87
X366.66Y-96.99
X366.66Y-122.05
M30
