%TF.GenerationSoftware,KiCad,Pcbnew,9.0.7*%
%TF.CreationDate,2026-03-25T16:30:23-04:00*%
%TF.ProjectId,splitkbd,73706c69-746b-4626-942e-6b696361645f,rev?*%
%TF.SameCoordinates,Original*%
%TF.FileFunction,Copper,L1,Top*%
%TF.FilePolarity,Positive*%
%FSLAX46Y46*%
G04 Gerber Fmt 4.6, Leading zero omitted, Abs format (unit mm)*
G04 Created by KiCad (PCBNEW 9.0.7) date 2026-03-25 16:30:23*
%MOMM*%
%LPD*%
G01*
G04 APERTURE LIST*
G04 Aperture macros list*
%AMRoundRect*
0 Rectangle with rounded corners*
0 $1 Rounding radius*
0 $2 $3 $4 $5 $6 $7 $8 $9 X,Y pos of 4 corners*
0 Add a 4 corners polygon primitive as box body*
4,1,4,$2,$3,$4,$5,$6,$7,$8,$9,$2,$3,0*
0 Add four circle primitives for the rounded corners*
1,1,$1+$1,$2,$3*
1,1,$1+$1,$4,$5*
1,1,$1+$1,$6,$7*
1,1,$1+$1,$8,$9*
0 Add four rect primitives between the rounded corners*
20,1,$1+$1,$2,$3,$4,$5,0*
20,1,$1+$1,$4,$5,$6,$7,0*
20,1,$1+$1,$6,$7,$8,$9,0*
20,1,$1+$1,$8,$9,$2,$3,0*%
G04 Aperture macros list end*
%TA.AperFunction,ComponentPad*%
%ADD10C,3.300000*%
%TD*%
%TA.AperFunction,ComponentPad*%
%ADD11RoundRect,0.750000X-0.750000X-0.750000X0.750000X-0.750000X0.750000X0.750000X-0.750000X0.750000X0*%
%TD*%
%TA.AperFunction,ViaPad*%
%ADD12C,0.600000*%
%TD*%
%TA.AperFunction,Conductor*%
%ADD13C,0.200000*%
%TD*%
G04 APERTURE END LIST*
D10*
%TO.P,SW10,1,1*%
%TO.N,/right/COL3*%
X334810000Y-137510000D03*
%TO.P,SW10,2,2*%
%TO.N,Net-(D8-A)*%
X341160000Y-134970000D03*
%TD*%
%TO.P,SW34,1,1*%
%TO.N,/left/COL3*%
X143684824Y-112390000D03*
%TO.P,SW34,2,2*%
%TO.N,Net-(D34-A)*%
X150034824Y-109850000D03*
%TD*%
%TO.P,SW19,1,1*%
%TO.N,/right/COL3*%
X334784824Y-87080000D03*
%TO.P,SW19,2,2*%
%TO.N,Net-(D19-A)*%
X341134824Y-84540000D03*
%TD*%
%TO.P,SW33,1,1*%
%TO.N,/left/COL2*%
X118254824Y-55480000D03*
%TO.P,SW33,2,2*%
%TO.N,Net-(D33-A)*%
X124604824Y-52940000D03*
%TD*%
%TO.P,SW38,1,1*%
%TO.N,/right/COL2*%
X309410000Y-55320000D03*
%TO.P,SW38,2,2*%
%TO.N,Net-(D38-A)*%
X315760000Y-52780000D03*
%TD*%
%TO.P,SW27,1,1*%
%TO.N,/right/COL1*%
X284144824Y-112680000D03*
%TO.P,SW27,2,2*%
%TO.N,Net-(D27-A)*%
X290494824Y-110140000D03*
%TD*%
%TO.P,SW17,1,1*%
%TO.N,/right/COL1*%
X284014824Y-61380000D03*
%TO.P,SW17,2,2*%
%TO.N,Net-(D17-A)*%
X290364824Y-58840000D03*
%TD*%
%TO.P,SW2,1,1*%
%TO.N,/right/COL0*%
X360310000Y-74410000D03*
%TO.P,SW2,2,2*%
%TO.N,Net-(D2-A)*%
X366660000Y-71870000D03*
%TD*%
%TO.P,SW36,1,1*%
%TO.N,/right/COL0*%
X360310000Y-99530000D03*
%TO.P,SW36,2,2*%
%TO.N,Net-(D36-A)*%
X366660000Y-96990000D03*
%TD*%
%TO.P,SW30,1,1*%
%TO.N,/right/COL4*%
X258674824Y-95120000D03*
%TO.P,SW30,2,2*%
%TO.N,Net-(D30-A)*%
X265024824Y-92580000D03*
%TD*%
%TO.P,SW35,1,1*%
%TO.N,/left/COL4*%
X168990000Y-95550000D03*
%TO.P,SW35,2,2*%
%TO.N,Net-(D35-A)*%
X175340000Y-93010000D03*
%TD*%
%TO.P,SW29,1,1*%
%TO.N,/right/COL3*%
X334910000Y-61610000D03*
%TO.P,SW29,2,2*%
%TO.N,Net-(D29-A)*%
X341260000Y-59070000D03*
%TD*%
%TO.P,SW28,1,1*%
%TO.N,/right/COL2*%
X309510000Y-131010000D03*
%TO.P,SW28,2,2*%
%TO.N,Net-(D28-A)*%
X315860000Y-128470000D03*
%TD*%
%TO.P,SW40,1,1*%
%TO.N,/right/COL4*%
X258800000Y-120690000D03*
%TO.P,SW40,2,2*%
%TO.N,Net-(D40-A)*%
X265150000Y-118150000D03*
%TD*%
%TO.P,SW12,1,1*%
%TO.N,/left/COL1*%
X92850000Y-112880000D03*
%TO.P,SW12,2,2*%
%TO.N,Net-(D12-A)*%
X99200000Y-110340000D03*
%TD*%
%TO.P,SW13,1,1*%
%TO.N,/left/COL2*%
X118290000Y-106020000D03*
%TO.P,SW13,2,2*%
%TO.N,Net-(D13-A)*%
X124640000Y-103480000D03*
%TD*%
%TO.P,SW41,1,1*%
%TO.N,/left/COL4*%
X168974824Y-70210000D03*
%TO.P,SW41,2,2*%
%TO.N,Net-(D41-A)*%
X175324824Y-67670000D03*
%TD*%
%TO.P,SW4,1,1*%
%TO.N,/right/COL1*%
X284144824Y-87110000D03*
%TO.P,SW4,2,2*%
%TO.N,Net-(D4-A)*%
X290494824Y-84570000D03*
%TD*%
%TO.P,SW22,1,1*%
%TO.N,/left/COL1*%
X92880000Y-138020000D03*
%TO.P,SW22,2,2*%
%TO.N,Net-(D22-A)*%
X99230000Y-135480000D03*
%TD*%
%TO.P,SW11,1,1*%
%TO.N,/right/COL4*%
X258590000Y-145650000D03*
%TO.P,SW11,2,2*%
%TO.N,Net-(D10-A)*%
X264940000Y-143110000D03*
%TD*%
%TO.P,SW3,1,1*%
%TO.N,/left/COL1*%
X92820000Y-61890000D03*
%TO.P,SW3,2,2*%
%TO.N,Net-(D3-A)*%
X99170000Y-59350000D03*
%TD*%
%TO.P,SW16,1,1*%
%TO.N,/right/COL0*%
X360270000Y-150160000D03*
%TO.P,SW16,2,2*%
%TO.N,Net-(D16-A)*%
X366620000Y-147620000D03*
%TD*%
%TO.P,SW39,1,1*%
%TO.N,/right/COL3*%
X334784824Y-112660000D03*
%TO.P,SW39,2,2*%
%TO.N,Net-(D39-A)*%
X341134824Y-110120000D03*
%TD*%
%TO.P,SW24,1,1*%
%TO.N,/left/COL3*%
X143670000Y-62200000D03*
%TO.P,SW24,2,2*%
%TO.N,Net-(D24-A)*%
X150020000Y-59660000D03*
%TD*%
%TO.P,SW31,1,1*%
%TO.N,/left/COL0*%
X67620000Y-149620000D03*
%TO.P,SW31,2,2*%
%TO.N,Net-(D31-A)*%
X73970000Y-147080000D03*
%TD*%
%TO.P,SW25,1,1*%
%TO.N,/left/COL4*%
X194620000Y-155800000D03*
%TO.P,SW25,2,2*%
%TO.N,Net-(D25-A)*%
X200970000Y-153260000D03*
%TD*%
%TO.P,SW20,1,1*%
%TO.N,/right/COL4*%
X258690000Y-69850000D03*
%TO.P,SW20,2,2*%
%TO.N,Net-(D20-A)*%
X265040000Y-67310000D03*
%TD*%
%TO.P,SW8,1,1*%
%TO.N,/left/COL4*%
X168990000Y-146590000D03*
%TO.P,SW8,2,2*%
%TO.N,Net-(D9-A)*%
X175340000Y-144050000D03*
%TD*%
%TO.P,SW14,1,1*%
%TO.N,/left/COL3*%
X143660000Y-87460000D03*
%TO.P,SW14,2,2*%
%TO.N,Net-(D14-A)*%
X150010000Y-84920000D03*
%TD*%
%TO.P,SW5,1,1*%
%TO.N,/left/COL2*%
X118280000Y-80660000D03*
%TO.P,SW5,2,2*%
%TO.N,Net-(D5-A)*%
X124630000Y-78120000D03*
%TD*%
%TO.P,SW21,1,1*%
%TO.N,/left/COL0*%
X67660000Y-124580000D03*
%TO.P,SW21,2,2*%
%TO.N,Net-(D21-A)*%
X74010000Y-122040000D03*
%TD*%
%TO.P,SW23,1,1*%
%TO.N,/left/COL2*%
X118300000Y-131950000D03*
%TO.P,SW23,2,2*%
%TO.N,Net-(D23-A)*%
X124650000Y-129410000D03*
%TD*%
%TO.P,SW6,1,1*%
%TO.N,/right/COL2*%
X309410000Y-105640000D03*
%TO.P,SW6,2,2*%
%TO.N,Net-(D6-A)*%
X315760000Y-103100000D03*
%TD*%
%TO.P,SW37,1,1*%
%TO.N,/right/COL1*%
X284160000Y-137940000D03*
%TO.P,SW37,2,2*%
%TO.N,Net-(D37-A)*%
X290510000Y-135400000D03*
%TD*%
%TO.P,SW9,1,1*%
%TO.N,/left/COL0*%
X67630000Y-74070000D03*
%TO.P,SW9,2,2*%
%TO.N,Net-(D11-A)*%
X73980000Y-71530000D03*
%TD*%
%TO.P,SW42,1,1*%
%TO.N,/right/COL4*%
X233330000Y-155300000D03*
%TO.P,SW42,2,2*%
%TO.N,Net-(D42-A)*%
X239680000Y-152760000D03*
%TD*%
D11*
%TO.P,U2,15,BAT*%
%TO.N,/right/VBAT*%
X241655000Y-76173100D03*
%TO.P,U2,16,GND*%
%TO.N,GND*%
X241655000Y-72773100D03*
%TD*%
D10*
%TO.P,SW7,1,1*%
%TO.N,/left/COL3*%
X143674824Y-138240000D03*
%TO.P,SW7,2,2*%
%TO.N,Net-(D7-A)*%
X150024824Y-135700000D03*
%TD*%
%TO.P,SW32,1,1*%
%TO.N,/left/COL1*%
X92860000Y-87510000D03*
%TO.P,SW32,2,2*%
%TO.N,Net-(D32-A)*%
X99210000Y-84970000D03*
%TD*%
%TO.P,SW18,1,1*%
%TO.N,/right/COL2*%
X309594824Y-80370000D03*
%TO.P,SW18,2,2*%
%TO.N,Net-(D18-A)*%
X315944824Y-77830000D03*
%TD*%
%TO.P,SW15,1,1*%
%TO.N,/left/COL4*%
X169004824Y-121000000D03*
%TO.P,SW15,2,2*%
%TO.N,Net-(D15-A)*%
X175354824Y-118460000D03*
%TD*%
%TO.P,SW1,1,1*%
%TO.N,/left/COL0*%
X67620000Y-99240000D03*
%TO.P,SW1,2,2*%
%TO.N,Net-(D1-A)*%
X73970000Y-96700000D03*
%TD*%
D11*
%TO.P,U1,15,BAT*%
%TO.N,/left/VBAT*%
X202320000Y-75990000D03*
%TO.P,U1,16,GND*%
%TO.N,GND*%
X202320000Y-72590000D03*
%TD*%
D10*
%TO.P,SW26,1,1*%
%TO.N,/right/COL0*%
X360310000Y-124590000D03*
%TO.P,SW26,2,2*%
%TO.N,Net-(D26-A)*%
X366660000Y-122050000D03*
%TD*%
D12*
%TO.N,GND*%
X236290000Y-72480000D03*
%TO.N,/left/ROW0*%
X77560000Y-112050000D03*
X105830000Y-80900000D03*
X109530000Y-86360000D03*
X105020000Y-122220000D03*
%TO.N,/right/ROW0*%
X287500000Y-126510000D03*
X324950000Y-101860000D03*
X287370000Y-97520000D03*
X303040000Y-115160000D03*
X251594265Y-90575735D03*
X330880000Y-99520000D03*
X300890000Y-110870000D03*
X231980000Y-75960000D03*
%TO.N,/left/ROW1*%
X156740000Y-106750000D03*
X84020000Y-114230000D03*
X87960000Y-122880000D03*
X135010000Y-96580000D03*
X158270000Y-111930000D03*
X138650000Y-98260000D03*
%TO.N,/left/ROW2*%
X179480000Y-82760000D03*
X185140000Y-83500000D03*
%TO.N,/right/ROW2*%
X328750000Y-71400000D03*
X323460000Y-94290000D03*
X233420000Y-80530000D03*
X254740000Y-106060000D03*
%TO.N,/right/ROW3*%
X248810000Y-127430000D03*
X353830000Y-109660000D03*
X337660000Y-128970000D03*
X298120000Y-89790000D03*
X300240000Y-78010000D03*
X250668000Y-120000000D03*
%TO.N,/left/ROW4*%
X201820000Y-82160000D03*
X199500000Y-80160000D03*
%TO.N,/left/COL0*%
X208405000Y-74612269D03*
%TO.N,/right/COL0*%
X249120000Y-73780000D03*
%TO.N,/left/COL1*%
X91180000Y-76220000D03*
X91490000Y-72390000D03*
X207805000Y-76060796D03*
%TO.N,/right/COL1*%
X250620000Y-78540000D03*
X256440000Y-82170000D03*
X280470000Y-68330000D03*
%TO.N,/left/COL2*%
X118340000Y-75030000D03*
X118310000Y-72320000D03*
%TO.N,/right/COL2*%
X305050000Y-89230000D03*
X248950000Y-79500000D03*
X257490000Y-83980000D03*
%TO.N,/left/COL3*%
X138460000Y-71950000D03*
X140410000Y-77070000D03*
X208800000Y-78300000D03*
%TO.N,/left/COL4*%
X182640000Y-79470000D03*
X203050000Y-81290000D03*
X163810000Y-79330000D03*
%TO.N,/right/COL3*%
X247470000Y-79390000D03*
%TD*%
D13*
%TO.N,GND*%
X236290000Y-72480000D02*
X236583100Y-72773100D01*
X236583100Y-72773100D02*
X241655000Y-72773100D01*
%TO.N,/left/ROW0*%
X82689943Y-112050000D02*
X77560000Y-112050000D01*
X105830000Y-82670000D02*
X109450000Y-86290000D01*
X105830000Y-80900000D02*
X105830000Y-82670000D01*
X92859943Y-122220000D02*
X82689943Y-112050000D01*
X105020000Y-122220000D02*
X92859943Y-122220000D01*
%TO.N,/right/ROW0*%
X300720000Y-110870000D02*
X287370000Y-97520000D01*
X246207100Y-85470000D02*
X241490000Y-85470000D01*
X300890000Y-110870000D02*
X300720000Y-110870000D01*
X328540000Y-101860000D02*
X330880000Y-99520000D01*
X324950000Y-101860000D02*
X328540000Y-101860000D01*
X241490000Y-85470000D02*
X231980000Y-75960000D01*
X251594265Y-90575735D02*
X251312835Y-90575735D01*
X251312835Y-90575735D02*
X246207100Y-85470000D01*
X287500000Y-126510000D02*
X291690000Y-126510000D01*
X291690000Y-126510000D02*
X303040000Y-115160000D01*
%TO.N,/left/ROW1*%
X136690000Y-98260000D02*
X138650000Y-98260000D01*
X135010000Y-96580000D02*
X136690000Y-98260000D01*
X156740000Y-110400000D02*
X158270000Y-111930000D01*
X84020000Y-114230000D02*
X84020000Y-118940000D01*
X84020000Y-118940000D02*
X87960000Y-122880000D01*
X156740000Y-106750000D02*
X156740000Y-110400000D01*
%TO.N,/left/ROW2*%
X179480000Y-82760000D02*
X184400000Y-82760000D01*
X184400000Y-82760000D02*
X185140000Y-83500000D01*
%TO.N,/right/ROW2*%
X323460000Y-94290000D02*
X323460000Y-76690000D01*
X323460000Y-76690000D02*
X328750000Y-71400000D01*
X241323900Y-85871000D02*
X234701450Y-79248550D01*
X234701450Y-79248550D02*
X233420000Y-80530000D01*
X246041000Y-85871000D02*
X241323900Y-85871000D01*
X233420000Y-80530000D02*
X233410000Y-80520000D01*
X254740000Y-106060000D02*
X254740000Y-94570000D01*
X254740000Y-94570000D02*
X246041000Y-85871000D01*
%TO.N,/right/ROW3*%
X300240000Y-87670000D02*
X298120000Y-89790000D01*
X248810000Y-127430000D02*
X248810000Y-121858000D01*
X248810000Y-121858000D02*
X250668000Y-120000000D01*
X337660000Y-125830000D02*
X353830000Y-109660000D01*
X337660000Y-128970000D02*
X337660000Y-125830000D01*
X300240000Y-78010000D02*
X300240000Y-87670000D01*
%TO.N,/left/ROW4*%
X199500000Y-80160000D02*
X199820000Y-80160000D01*
X199820000Y-80160000D02*
X201820000Y-82160000D01*
%TO.N,/left/COL0*%
X174472365Y-77791000D02*
X170751365Y-74070000D01*
X67620000Y-124620000D02*
X67660000Y-124580000D01*
X67660000Y-124580000D02*
X67660000Y-99280000D01*
X203518000Y-77791000D02*
X174472365Y-77791000D01*
X206696731Y-74612269D02*
X203518000Y-77791000D01*
X67660000Y-99280000D02*
X67620000Y-99240000D01*
X67620000Y-99240000D02*
X67620000Y-74080000D01*
X67620000Y-74080000D02*
X67630000Y-74070000D01*
X170751365Y-74070000D02*
X67630000Y-74070000D01*
X208405000Y-74612269D02*
X206696731Y-74612269D01*
X67620000Y-149620000D02*
X67620000Y-124620000D01*
%TO.N,/right/COL0*%
X337751000Y-51851000D02*
X360310000Y-74410000D01*
X360310000Y-99530000D02*
X360310000Y-74410000D01*
X360310000Y-99530000D02*
X360310000Y-124590000D01*
X283450000Y-51361000D02*
X299618942Y-51361000D01*
X308118942Y-42861000D02*
X318721058Y-42861000D01*
X360270000Y-124630000D02*
X360310000Y-124590000D01*
X318721058Y-42861000D02*
X327711058Y-51851000D01*
X264029000Y-58871000D02*
X275940000Y-58871000D01*
X275940000Y-58871000D02*
X283450000Y-51361000D01*
X327711058Y-51851000D02*
X337751000Y-51851000D01*
X299618942Y-51361000D02*
X308118942Y-42861000D01*
X360270000Y-150160000D02*
X360270000Y-124630000D01*
X249120000Y-73780000D02*
X264029000Y-58871000D01*
%TO.N,/left/COL1*%
X208653943Y-74011269D02*
X208156057Y-74011269D01*
X176533955Y-69220000D02*
X176132955Y-69621000D01*
X206530631Y-74211269D02*
X206076104Y-74665796D01*
X107030057Y-61890000D02*
X92820000Y-61890000D01*
X204103170Y-73793170D02*
X204121000Y-73775340D01*
X204121000Y-73775340D02*
X204121000Y-71404660D01*
X207805000Y-76060796D02*
X208652527Y-75213269D01*
X92860000Y-79680000D02*
X91180000Y-78000000D01*
X174115693Y-69220000D02*
X170743955Y-69220000D01*
X209006000Y-74665796D02*
X209006000Y-74363326D01*
X203505340Y-70789000D02*
X201134660Y-70789000D01*
X170743955Y-69220000D02*
X169782955Y-68259000D01*
X208653943Y-75213269D02*
X209006000Y-74861212D01*
X92880000Y-138020000D02*
X105621000Y-125279000D01*
X208652527Y-75213269D02*
X208653943Y-75213269D01*
X105621000Y-125279000D02*
X105621000Y-121971057D01*
X169782955Y-68259000D02*
X168166693Y-68259000D01*
X209006000Y-74363326D02*
X208653943Y-74011269D01*
X99542811Y-121619000D02*
X92850000Y-114926189D01*
X201134660Y-70789000D02*
X201116830Y-70806830D01*
X209006000Y-74859796D02*
X209200000Y-74665796D01*
X208156057Y-74011269D02*
X207956057Y-74211269D01*
X176132955Y-69621000D02*
X174516693Y-69621000D01*
X204975796Y-74665796D02*
X204103170Y-73793170D01*
X92850000Y-87520000D02*
X92860000Y-87510000D01*
X155790058Y-69220000D02*
X152089058Y-72921000D01*
X105268943Y-121619000D02*
X99542811Y-121619000D01*
X91180000Y-78000000D02*
X91180000Y-76220000D01*
X167205693Y-69220000D02*
X155790058Y-69220000D01*
X92850000Y-114926189D02*
X92850000Y-112880000D01*
X204121000Y-71404660D02*
X203505340Y-70789000D01*
X209200000Y-74665796D02*
X209006000Y-74665796D01*
X92850000Y-112880000D02*
X92850000Y-87520000D01*
X209006000Y-74861212D02*
X209006000Y-74859796D01*
X92860000Y-87510000D02*
X92860000Y-79680000D01*
X118061057Y-72921000D02*
X107030057Y-61890000D01*
X201116830Y-70806830D02*
X199530000Y-69220000D01*
X206076104Y-74665796D02*
X204975796Y-74665796D01*
X105621000Y-121971057D02*
X105268943Y-121619000D01*
X199530000Y-69220000D02*
X176533955Y-69220000D01*
X168166693Y-68259000D02*
X167205693Y-69220000D01*
X92820000Y-71060000D02*
X92820000Y-61890000D01*
X91490000Y-72390000D02*
X92820000Y-71060000D01*
X207956057Y-74211269D02*
X206530631Y-74211269D01*
X152089058Y-72921000D02*
X118061057Y-72921000D01*
X174516693Y-69621000D02*
X174115693Y-69220000D01*
%TO.N,/right/COL1*%
X284144824Y-112680000D02*
X284144824Y-137924824D01*
X284144824Y-87110000D02*
X284144824Y-112680000D01*
X254250000Y-82170000D02*
X256440000Y-82170000D01*
X284014824Y-61380000D02*
X284144824Y-61510000D01*
X284144824Y-137924824D02*
X284160000Y-137940000D01*
X256440000Y-82170000D02*
X256510000Y-82170000D01*
X250620000Y-78540000D02*
X254250000Y-82170000D01*
X284014824Y-64785176D02*
X284014824Y-61380000D01*
X280470000Y-68330000D02*
X284014824Y-64785176D01*
X284144824Y-61510000D02*
X284144824Y-87110000D01*
%TO.N,/left/COL2*%
X118254824Y-55480000D02*
X118254824Y-72264824D01*
X118254824Y-72264824D02*
X118310000Y-72320000D01*
X118290000Y-101403826D02*
X118290000Y-106020000D01*
X118290000Y-131940000D02*
X118300000Y-131950000D01*
X118280000Y-75090000D02*
X118280000Y-80660000D01*
X118280000Y-80660000D02*
X118280000Y-101393826D01*
X118290000Y-106020000D02*
X118290000Y-131940000D01*
X118280000Y-101393826D02*
X118290000Y-101403826D01*
X118340000Y-75030000D02*
X118280000Y-75090000D01*
%TO.N,/right/COL2*%
X309410000Y-105640000D02*
X309594824Y-105455176D01*
X309594824Y-84685176D02*
X309594824Y-80370000D01*
X309510000Y-105740000D02*
X309410000Y-105640000D01*
X309510000Y-131010000D02*
X309510000Y-105740000D01*
X248950000Y-79500000D02*
X253430000Y-83980000D01*
X309594824Y-80370000D02*
X309594824Y-55504824D01*
X309594824Y-105455176D02*
X309594824Y-80370000D01*
X253430000Y-83980000D02*
X257490000Y-83980000D01*
X305050000Y-89230000D02*
X309594824Y-84685176D01*
X309594824Y-55504824D02*
X309410000Y-55320000D01*
X257490000Y-83980000D02*
X257530000Y-83980000D01*
%TO.N,/left/COL3*%
X148503094Y-67033094D02*
X148451289Y-67084900D01*
X176934955Y-68819000D02*
X177275824Y-68478131D01*
X199696100Y-68819000D02*
X176934955Y-68819000D01*
X201265100Y-70388000D02*
X199696100Y-68819000D01*
X203671440Y-70388000D02*
X201265100Y-70388000D01*
X149250000Y-67780000D02*
X148503094Y-67033094D01*
X176132955Y-65719000D02*
X174516693Y-65719000D01*
X143674824Y-138240000D02*
X143674824Y-112400000D01*
X204522000Y-73644900D02*
X204522000Y-71238560D01*
X146508711Y-67084900D02*
X145135100Y-65711289D01*
X173373824Y-66861869D02*
X173373824Y-68478131D01*
X206364531Y-73810269D02*
X205910004Y-74264796D01*
X209601000Y-74301057D02*
X209407000Y-74301057D01*
X169949055Y-67858000D02*
X168000593Y-67858000D01*
X143660000Y-80320000D02*
X140410000Y-77070000D01*
X156662958Y-67780000D02*
X149250000Y-67780000D01*
X157282958Y-68400000D02*
X156662958Y-67780000D01*
X173714693Y-68819000D02*
X170910055Y-68819000D01*
X209407000Y-74197226D02*
X208820043Y-73610269D01*
X167458593Y-68400000D02*
X157282958Y-68400000D01*
X148451289Y-67084900D02*
X146508711Y-67084900D01*
X205910004Y-74264796D02*
X205141896Y-74264796D01*
X143674824Y-112400000D02*
X143684824Y-112390000D01*
X204522000Y-71238560D02*
X203671440Y-70388000D01*
X177275824Y-68478131D02*
X177275824Y-66861869D01*
X143660000Y-87460000D02*
X143660000Y-80320000D01*
X168000593Y-67858000D02*
X167458593Y-68400000D01*
X207789957Y-73810269D02*
X206364531Y-73810269D01*
X209407000Y-74301057D02*
X209407000Y-74197226D01*
X208800000Y-78300000D02*
X209801000Y-77299000D01*
X143684824Y-112390000D02*
X143684824Y-87484824D01*
X207989957Y-73610269D02*
X207789957Y-73810269D01*
X143684824Y-87484824D02*
X143660000Y-87460000D01*
X145135100Y-63768711D02*
X145186905Y-63716905D01*
X209801000Y-77299000D02*
X209801000Y-74501057D01*
X205141896Y-74264796D02*
X204522000Y-73644900D01*
X145135100Y-65711289D02*
X145135100Y-63768711D01*
X177275824Y-66861869D02*
X176132955Y-65719000D01*
X145186905Y-63716905D02*
X143670000Y-62200000D01*
X173373824Y-68478131D02*
X173714693Y-68819000D01*
X209801000Y-74501057D02*
X209601000Y-74301057D01*
X170910055Y-68819000D02*
X169949055Y-67858000D01*
X143670000Y-66740000D02*
X143670000Y-62200000D01*
X208820043Y-73610269D02*
X207989957Y-73610269D01*
X138460000Y-71950000D02*
X143670000Y-66740000D01*
X174516693Y-65719000D02*
X173373824Y-66861869D01*
%TO.N,/left/COL4*%
X163810000Y-90370000D02*
X168990000Y-95550000D01*
X182640000Y-79470000D02*
X201230000Y-79470000D01*
X169004824Y-121000000D02*
X169004824Y-146575176D01*
X168990000Y-146590000D02*
X188974900Y-146590000D01*
X194620000Y-152235100D02*
X194620000Y-155800000D01*
X201230000Y-79470000D02*
X203050000Y-81290000D01*
X188974900Y-146590000D02*
X194620000Y-152235100D01*
X169004824Y-146575176D02*
X168990000Y-146590000D01*
X169004824Y-95564824D02*
X169004824Y-121000000D01*
X168990000Y-95550000D02*
X169004824Y-95564824D01*
X163810000Y-79330000D02*
X163810000Y-90370000D01*
%TO.N,/right/COL3*%
X309995824Y-67595824D02*
X325795767Y-67595824D01*
X292710013Y-53369000D02*
X310218131Y-53369000D01*
X247470000Y-78310869D02*
X266351869Y-59429000D01*
X247470000Y-79390000D02*
X247470000Y-78310869D01*
X286650013Y-59429000D02*
X292710013Y-53369000D01*
X334784824Y-87080000D02*
X334784824Y-112660000D01*
X266351869Y-59429000D02*
X286650013Y-59429000D01*
X334784824Y-76584881D02*
X334784824Y-87080000D01*
X334910000Y-61610000D02*
X334910000Y-86954824D01*
X334910000Y-86954824D02*
X334784824Y-87080000D01*
X311361000Y-54511869D02*
X311361000Y-56128131D01*
X309995824Y-57493307D02*
X309995824Y-67595824D01*
X334784824Y-137484824D02*
X334810000Y-137510000D01*
X311361000Y-56128131D02*
X309995824Y-57493307D01*
X310218131Y-53369000D02*
X311361000Y-54511869D01*
X325795767Y-67595824D02*
X334784824Y-76584881D01*
X334784824Y-112660000D02*
X334784824Y-137484824D01*
%TO.N,/right/COL4*%
X258800000Y-145440000D02*
X258800000Y-120690000D01*
X258674824Y-69865176D02*
X258690000Y-69850000D01*
X242980000Y-145650000D02*
X258590000Y-145650000D01*
X233330000Y-155300000D02*
X242980000Y-145650000D01*
X258674824Y-95120000D02*
X258674824Y-69865176D01*
X258800000Y-120690000D02*
X258800000Y-120580000D01*
X258800000Y-120580000D02*
X258674824Y-120454824D01*
X258674824Y-120454824D02*
X258674824Y-95120000D01*
X258590000Y-145650000D02*
X258800000Y-145440000D01*
%TD*%
M02*
