%TF.GenerationSoftware,KiCad,Pcbnew,9.0.7*%
%TF.CreationDate,2026-03-25T16:30:23-04:00*%
%TF.ProjectId,splitkbd,73706c69-746b-4626-942e-6b696361645f,rev?*%
%TF.SameCoordinates,Original*%
%TF.FileFunction,Soldermask,Top*%
%TF.FilePolarity,Negative*%
%FSLAX46Y46*%
G04 Gerber Fmt 4.6, Leading zero omitted, Abs format (unit mm)*
G04 Created by KiCad (PCBNEW 9.0.7) date 2026-03-25 16:30:23*
%MOMM*%
%LPD*%
G01*
G04 APERTURE LIST*
G04 Aperture macros list*
%AMRoundRect*
0 Rectangle with rounded corners*
0 $1 Rounding radius*
0 $2 $3 $4 $5 $6 $7 $8 $9 X,Y pos of 4 corners*
0 Add a 4 corners polygon primitive as box body*
4,1,4,$2,$3,$4,$5,$6,$7,$8,$9,$2,$3,0*
0 Add four circle primitives for the rounded corners*
1,1,$1+$1,$2,$3*
1,1,$1+$1,$4,$5*
1,1,$1+$1,$6,$7*
1,1,$1+$1,$8,$9*
0 Add four rect primitives between the rounded corners*
20,1,$1+$1,$2,$3,$4,$5,0*
20,1,$1+$1,$4,$5,$6,$7,0*
20,1,$1+$1,$6,$7,$8,$9,0*
20,1,$1+$1,$8,$9,$2,$3,0*%
G04 Aperture macros list end*
%ADD10C,0.500000*%
%ADD11C,3.200000*%
%ADD12C,1.750000*%
%ADD13C,3.987800*%
%ADD14C,3.300000*%
%ADD15RoundRect,0.775400X-0.775400X-0.775400X0.775400X-0.775400X0.775400X0.775400X-0.775400X0.775400X0*%
G04 APERTURE END LIST*
D10*
%TO.C,B03*%
X215600000Y-120130000D03*
X220600000Y-120130000D03*
X215600000Y-119380000D03*
X215600000Y-119380000D03*
X220600000Y-119380000D03*
X220600000Y-119380000D03*
X215600000Y-118630000D03*
X220600000Y-118630000D03*
X215600000Y-117880000D03*
X220600000Y-117880000D03*
X215600000Y-117130000D03*
X220600000Y-117130000D03*
X215600000Y-116380000D03*
X220600000Y-116380000D03*
X215600000Y-115630000D03*
X220600000Y-115630000D03*
X215600000Y-114880000D03*
X220600000Y-114880000D03*
X215600000Y-114130000D03*
X220600000Y-114130000D03*
X215600000Y-113380000D03*
X220600000Y-113380000D03*
X215600000Y-112630000D03*
X220600000Y-112630000D03*
%TD*%
D11*
%TO.C,H4*%
X210903806Y-69696194D03*
%TD*%
%TO.C,H7*%
X53566193Y-66006193D03*
%TD*%
%TO.C,H1*%
X225406194Y-69786194D03*
%TD*%
%TO.C,H2*%
X210803806Y-167373806D03*
%TD*%
%TO.C,H5*%
X382643806Y-65986194D03*
%TD*%
%TO.C,H8*%
X53566194Y-164923806D03*
%TD*%
D10*
%TO.C,B02*%
X215650000Y-73880000D03*
X220650000Y-73880000D03*
X215650000Y-73130000D03*
X215650000Y-73130000D03*
X220650000Y-73130000D03*
X220650000Y-73130000D03*
X215650000Y-72380000D03*
X220650000Y-72380000D03*
X215650000Y-71630000D03*
X220650000Y-71630000D03*
X215650000Y-70880000D03*
X220650000Y-70880000D03*
X215650000Y-70130000D03*
X220650000Y-70130000D03*
X215650000Y-69380000D03*
X220650000Y-69380000D03*
X215650000Y-68630000D03*
X220650000Y-68630000D03*
X215650000Y-67880000D03*
X220650000Y-67880000D03*
X215650000Y-67130000D03*
X220650000Y-67130000D03*
X215650000Y-66380000D03*
X220650000Y-66380000D03*
%TD*%
%TO.C,B01*%
X220620000Y-163230000D03*
X215620000Y-163230000D03*
X220620000Y-163980000D03*
X220620000Y-163980000D03*
X215620000Y-163980000D03*
X215620000Y-163980000D03*
X220620000Y-164730000D03*
X215620000Y-164730000D03*
X220620000Y-165480000D03*
X215620000Y-165480000D03*
X220620000Y-166230000D03*
X215620000Y-166230000D03*
X220620000Y-166980000D03*
X215620000Y-166980000D03*
X220620000Y-167730000D03*
X215620000Y-167730000D03*
X220620000Y-168480000D03*
X215620000Y-168480000D03*
X220620000Y-169230000D03*
X215620000Y-169230000D03*
X220620000Y-169980000D03*
X215620000Y-169980000D03*
X220620000Y-170730000D03*
X215620000Y-170730000D03*
%TD*%
D11*
%TO.C,H3*%
X225436194Y-167353806D03*
%TD*%
%TO.C,H6*%
X382643806Y-164903806D03*
%TD*%
D12*
%TO.C,SW10*%
X343700000Y-140050000D03*
D13*
X338620000Y-140050000D03*
D12*
X333540000Y-140050000D03*
D14*
X334810000Y-137510000D03*
X341160000Y-134970000D03*
%TD*%
D12*
%TO.C,SW34*%
X152574824Y-114930000D03*
D13*
X147494824Y-114930000D03*
D12*
X142414824Y-114930000D03*
D14*
X143684824Y-112390000D03*
X150034824Y-109850000D03*
%TD*%
D12*
%TO.C,SW19*%
X343674824Y-89620000D03*
D13*
X338594824Y-89620000D03*
D12*
X333514824Y-89620000D03*
D14*
X334784824Y-87080000D03*
X341134824Y-84540000D03*
%TD*%
D12*
%TO.C,SW33*%
X127144824Y-58020000D03*
D13*
X122064824Y-58020000D03*
D12*
X116984824Y-58020000D03*
D14*
X118254824Y-55480000D03*
X124604824Y-52940000D03*
%TD*%
D12*
%TO.C,SW38*%
X318300000Y-57860000D03*
D13*
X313220000Y-57860000D03*
D12*
X308140000Y-57860000D03*
D14*
X309410000Y-55320000D03*
X315760000Y-52780000D03*
%TD*%
D12*
%TO.C,SW27*%
X293034824Y-115220000D03*
D13*
X287954824Y-115220000D03*
D12*
X282874824Y-115220000D03*
D14*
X284144824Y-112680000D03*
X290494824Y-110140000D03*
%TD*%
D12*
%TO.C,SW17*%
X292904824Y-63920000D03*
D13*
X287824824Y-63920000D03*
D12*
X282744824Y-63920000D03*
D14*
X284014824Y-61380000D03*
X290364824Y-58840000D03*
%TD*%
D12*
%TO.C,SW2*%
X369200000Y-76950000D03*
D13*
X364120000Y-76950000D03*
D12*
X359040000Y-76950000D03*
D14*
X360310000Y-74410000D03*
X366660000Y-71870000D03*
%TD*%
D12*
%TO.C,SW36*%
X369200000Y-102070000D03*
D13*
X364120000Y-102070000D03*
D12*
X359040000Y-102070000D03*
D14*
X360310000Y-99530000D03*
X366660000Y-96990000D03*
%TD*%
D12*
%TO.C,SW30*%
X267564824Y-97660000D03*
D13*
X262484824Y-97660000D03*
D12*
X257404824Y-97660000D03*
D14*
X258674824Y-95120000D03*
X265024824Y-92580000D03*
%TD*%
D12*
%TO.C,SW35*%
X177880000Y-98090000D03*
D13*
X172800000Y-98090000D03*
D12*
X167720000Y-98090000D03*
D14*
X168990000Y-95550000D03*
X175340000Y-93010000D03*
%TD*%
D12*
%TO.C,SW29*%
X343800000Y-64150000D03*
D13*
X338720000Y-64150000D03*
D12*
X333640000Y-64150000D03*
D14*
X334910000Y-61610000D03*
X341260000Y-59070000D03*
%TD*%
D12*
%TO.C,SW28*%
X318400000Y-133550000D03*
D13*
X313320000Y-133550000D03*
D12*
X308240000Y-133550000D03*
D14*
X309510000Y-131010000D03*
X315860000Y-128470000D03*
%TD*%
D12*
%TO.C,SW40*%
X267690000Y-123230000D03*
D13*
X262610000Y-123230000D03*
D12*
X257530000Y-123230000D03*
D14*
X258800000Y-120690000D03*
X265150000Y-118150000D03*
%TD*%
D12*
%TO.C,SW12*%
X101740000Y-115420000D03*
D13*
X96660000Y-115420000D03*
D12*
X91580000Y-115420000D03*
D14*
X92850000Y-112880000D03*
X99200000Y-110340000D03*
%TD*%
D12*
%TO.C,SW13*%
X127180000Y-108560000D03*
D13*
X122100000Y-108560000D03*
D12*
X117020000Y-108560000D03*
D14*
X118290000Y-106020000D03*
X124640000Y-103480000D03*
%TD*%
D12*
%TO.C,SW41*%
X177864824Y-72750000D03*
D13*
X172784824Y-72750000D03*
D12*
X167704824Y-72750000D03*
D14*
X168974824Y-70210000D03*
X175324824Y-67670000D03*
%TD*%
D12*
%TO.C,SW4*%
X293034824Y-89650000D03*
D13*
X287954824Y-89650000D03*
D12*
X282874824Y-89650000D03*
D14*
X284144824Y-87110000D03*
X290494824Y-84570000D03*
%TD*%
D12*
%TO.C,SW22*%
X101770000Y-140560000D03*
D13*
X96690000Y-140560000D03*
D12*
X91610000Y-140560000D03*
D14*
X92880000Y-138020000D03*
X99230000Y-135480000D03*
%TD*%
D12*
%TO.C,SW11*%
X267480000Y-148190000D03*
D13*
X262400000Y-148190000D03*
D12*
X257320000Y-148190000D03*
D14*
X258590000Y-145650000D03*
X264940000Y-143110000D03*
%TD*%
D12*
%TO.C,SW3*%
X101710000Y-64430000D03*
D13*
X96630000Y-64430000D03*
D12*
X91550000Y-64430000D03*
D14*
X92820000Y-61890000D03*
X99170000Y-59350000D03*
%TD*%
D12*
%TO.C,SW16*%
X369160000Y-152700000D03*
D13*
X364080000Y-152700000D03*
D12*
X359000000Y-152700000D03*
D14*
X360270000Y-150160000D03*
X366620000Y-147620000D03*
%TD*%
D12*
%TO.C,SW39*%
X343674824Y-115200000D03*
D13*
X338594824Y-115200000D03*
D12*
X333514824Y-115200000D03*
D14*
X334784824Y-112660000D03*
X341134824Y-110120000D03*
%TD*%
D12*
%TO.C,SW24*%
X152560000Y-64740000D03*
D13*
X147480000Y-64740000D03*
D12*
X142400000Y-64740000D03*
D14*
X143670000Y-62200000D03*
X150020000Y-59660000D03*
%TD*%
D12*
%TO.C,SW31*%
X76510000Y-152160000D03*
D13*
X71430000Y-152160000D03*
D12*
X66350000Y-152160000D03*
D14*
X67620000Y-149620000D03*
X73970000Y-147080000D03*
%TD*%
D12*
%TO.C,SW25*%
X203510000Y-158340000D03*
D13*
X198430000Y-158340000D03*
D12*
X193350000Y-158340000D03*
D14*
X194620000Y-155800000D03*
X200970000Y-153260000D03*
%TD*%
D12*
%TO.C,SW20*%
X267580000Y-72390000D03*
D13*
X262500000Y-72390000D03*
D12*
X257420000Y-72390000D03*
D14*
X258690000Y-69850000D03*
X265040000Y-67310000D03*
%TD*%
D12*
%TO.C,SW8*%
X177880000Y-149130000D03*
D13*
X172800000Y-149130000D03*
D12*
X167720000Y-149130000D03*
D14*
X168990000Y-146590000D03*
X175340000Y-144050000D03*
%TD*%
D12*
%TO.C,SW14*%
X152550000Y-90000000D03*
D13*
X147470000Y-90000000D03*
D12*
X142390000Y-90000000D03*
D14*
X143660000Y-87460000D03*
X150010000Y-84920000D03*
%TD*%
D12*
%TO.C,SW5*%
X127170000Y-83200000D03*
D13*
X122090000Y-83200000D03*
D12*
X117010000Y-83200000D03*
D14*
X118280000Y-80660000D03*
X124630000Y-78120000D03*
%TD*%
D12*
%TO.C,SW21*%
X76550000Y-127120000D03*
D13*
X71470000Y-127120000D03*
D12*
X66390000Y-127120000D03*
D14*
X67660000Y-124580000D03*
X74010000Y-122040000D03*
%TD*%
D12*
%TO.C,SW23*%
X127190000Y-134490000D03*
D13*
X122110000Y-134490000D03*
D12*
X117030000Y-134490000D03*
D14*
X118300000Y-131950000D03*
X124650000Y-129410000D03*
%TD*%
D12*
%TO.C,SW6*%
X318300000Y-108180000D03*
D13*
X313220000Y-108180000D03*
D12*
X308140000Y-108180000D03*
D14*
X309410000Y-105640000D03*
X315760000Y-103100000D03*
%TD*%
D12*
%TO.C,SW37*%
X293050000Y-140480000D03*
D13*
X287970000Y-140480000D03*
D12*
X282890000Y-140480000D03*
D14*
X284160000Y-137940000D03*
X290510000Y-135400000D03*
%TD*%
D12*
%TO.C,SW9*%
X76520000Y-76610000D03*
D13*
X71440000Y-76610000D03*
D12*
X66360000Y-76610000D03*
D14*
X67630000Y-74070000D03*
X73980000Y-71530000D03*
%TD*%
D12*
%TO.C,SW42*%
X242220000Y-157840000D03*
D13*
X237140000Y-157840000D03*
D12*
X232060000Y-157840000D03*
D14*
X233330000Y-155300000D03*
X239680000Y-152760000D03*
%TD*%
D15*
%TO.C,U2*%
X241655000Y-76173100D03*
X241655000Y-72773100D03*
%TD*%
D12*
%TO.C,SW7*%
X152564824Y-140780000D03*
D13*
X147484824Y-140780000D03*
D12*
X142404824Y-140780000D03*
D14*
X143674824Y-138240000D03*
X150024824Y-135700000D03*
%TD*%
D12*
%TO.C,SW32*%
X101750000Y-90050000D03*
D13*
X96670000Y-90050000D03*
D12*
X91590000Y-90050000D03*
D14*
X92860000Y-87510000D03*
X99210000Y-84970000D03*
%TD*%
D12*
%TO.C,SW18*%
X318484824Y-82910000D03*
D13*
X313404824Y-82910000D03*
D12*
X308324824Y-82910000D03*
D14*
X309594824Y-80370000D03*
X315944824Y-77830000D03*
%TD*%
D12*
%TO.C,SW15*%
X177894824Y-123540000D03*
D13*
X172814824Y-123540000D03*
D12*
X167734824Y-123540000D03*
D14*
X169004824Y-121000000D03*
X175354824Y-118460000D03*
%TD*%
D12*
%TO.C,SW1*%
X76510000Y-101780000D03*
D13*
X71430000Y-101780000D03*
D12*
X66350000Y-101780000D03*
D14*
X67620000Y-99240000D03*
X73970000Y-96700000D03*
%TD*%
D15*
%TO.C,U1*%
X202320000Y-75990000D03*
X202320000Y-72590000D03*
%TD*%
D12*
%TO.C,SW26*%
X369200000Y-127130000D03*
D13*
X364120000Y-127130000D03*
D12*
X359040000Y-127130000D03*
D14*
X360310000Y-124590000D03*
X366660000Y-122050000D03*
%TD*%
M02*
